<?xml version="1.0" encoding="UTF-8"?>
<svg version="1.1" xmlns="http://www.w3.org/2000/svg" width="265" height="366">
<path d="M0 0 C1.12599609 0.00064453 2.25199219 0.00128906 3.41210938 0.00195312 C11.6556326 0.0465663 11.6556326 0.0465663 13.9375 1.1875 C16.52998672 1.45925818 19.12198511 1.63322568 21.72265625 1.80859375 C23.9375 2.1875 23.9375 2.1875 24.9375 4.1875 C25.49050781 3.99027344 26.04351562 3.79304688 26.61328125 3.58984375 C41.07239178 1.08683806 56.08997291 18.92989823 62.9375 29.4375 C63.32357422 30.02789062 63.70964844 30.61828125 64.10742188 31.2265625 C66.18916906 34.55434642 67.30046889 37.33877038 67.9375 41.1875 C68.5975 42.1775 69.2575 43.1675 69.9375 44.1875 C72.44105808 51.69817423 71.87678646 60.83179667 68.6875 68 C66.56004718 73.11637422 67.2174839 75.38423645 69.65234375 80.23046875 C71.62728957 84.77464499 72.48278446 89.54282371 73.453125 94.38720703 C74.26634985 98.19528879 74.82468335 100.7382048 77.9375 103.1875 C82.1835706 110.10702246 81.76459801 115.38523072 77.9375 122.375 C74.73643296 128.8522765 74.24422322 134.06215535 74.9375 141.1875 C75.2675 141.1875 75.5975 141.1875 75.9375 141.1875 C75.96439449 144.14589355 75.98428741 147.10404427 76 150.0625 C76.00837891 150.90425781 76.01675781 151.74601563 76.02539062 152.61328125 C76.02861328 153.41894531 76.03183594 154.22460938 76.03515625 155.0546875 C76.04039307 155.79831543 76.04562988 156.54194336 76.05102539 157.30810547 C75.9375 159.1875 75.9375 159.1875 74.9375 161.1875 C74.70183251 163.97623193 74.55548783 166.76358257 74.4140625 169.55859375 C73.886456 172.46907878 73.22031982 173.38688009 70.9375 175.1875 C71.5975 175.1875 72.2575 175.1875 72.9375 175.1875 C72.87239583 177.140625 72.80729167 179.09375 72.7421875 181.046875 C72.96640761 183.50432741 73.83153439 185.0012889 74.9375 187.1875 C75.55910526 191.88610449 74.97326381 196.40564768 73.9375 201 C72.65783607 206.74046427 72.77081087 212.3348596 72.9375 218.1875 C72.9375 218.8475 72.9375 219.5075 72.9375 220.1875 C73.5975 221.1775 74.2575 222.1675 74.9375 223.1875 C75.0625 226.375 75.0625 226.375 74.9375 229.1875 C75.2675 229.1875 75.5975 229.1875 75.9375 229.1875 C75.96434312 232.00006281 75.98426188 234.81237241 76 237.625 C76.00837891 238.42744141 76.01675781 239.22988281 76.02539062 240.05664062 C76.05078125 246.07421875 76.05078125 246.07421875 74.9375 247.1875 C74.751875 248.92 74.751875 248.92 74.5625 250.6875 C73.37384731 261.03249291 69.46265413 272.45962624 58.25 274.6875 C52.76587911 275.90544587 47.95736891 277.69024198 42.9375 280.1875 C45.11521558 288.17245712 52.30940619 292.57290802 58.9140625 296.765625 C63.69304431 300.12382844 65.61113337 302.12881591 62.9375 307.1875 C50.73309118 325.25563627 50.73309118 325.25563627 44.9375 327.1875 C44.79570312 327.78433594 44.65390625 328.38117188 44.5078125 328.99609375 C41.66250772 339.92907993 17.54135868 353.53483653 7.75 353.3125 C7.00041016 353.30347656 6.25082031 353.29445313 5.47851562 353.28515625 C3.63137346 353.26162578 1.78439588 353.22575561 -0.0625 353.1875 C-0.0625 352.5275 -0.0625 351.8675 -0.0625 351.1875 C-0.60390625 351.38859375 -1.1453125 351.5896875 -1.703125 351.796875 C-4.85847066 352.31928322 -6.81262613 351.50999377 -9.8125 350.4375 C-10.87855469 350.06238281 -11.94460937 349.68726563 -13.04296875 349.30078125 C-15.41178656 348.42741375 -17.77075181 347.53647911 -20.125 346.625 C-24.08510821 345.09870829 -28.13951981 344.05831823 -32.25390625 343.03125 C-35.64870108 342.01139509 -38.82959048 340.62296336 -42.0625 339.1875 C-43.43840272 338.59932531 -44.81472264 338.01212585 -46.19140625 337.42578125 C-55.87745261 333.24277492 -65.05054571 328.70352777 -74.0625 323.1875 C-74.9280249 322.65987061 -74.9280249 322.65987061 -75.81103516 322.12158203 C-84.66683793 316.68894868 -92.98641462 310.71876517 -101.0625 304.1875 C-101.60261719 303.75179688 -102.14273438 303.31609375 -102.69921875 302.8671875 C-108.98085783 297.76428829 -114.99361607 292.44082147 -120.75 286.75 C-121.25539307 286.25387207 -121.76078613 285.75774414 -122.28149414 285.24658203 C-124.79045728 282.71558392 -126.60659737 280.43309756 -128.0625 277.1875 C-129.19662654 276.05337346 -130.33255498 274.92095088 -131.48046875 273.80078125 C-133.56371135 271.67638818 -135.54921252 269.49728022 -137.5 267.25 C-138.22058594 266.43660156 -138.94117188 265.62320312 -139.68359375 264.78515625 C-142.47322204 259.52990749 -139.37839813 255.80398457 -134.875 252.9375 C-133.98683594 252.35613281 -133.09867188 251.77476562 -132.18359375 251.17578125 C-131.15363281 250.51964844 -130.12367188 249.86351562 -129.0625 249.1875 C-124.60411962 246.25337281 -120.17317382 243.27821367 -115.74365234 240.30078125 C-114.31067455 239.35184446 -112.85473598 238.43773141 -111.39453125 237.53125 C-106.60365164 234.3896896 -105.11782912 231.99136164 -104.51171875 226.23828125 C-103.96463196 223.74071111 -102.98629928 222.81215623 -101.0625 221.1875 C-101.7225 221.1875 -102.3825 221.1875 -103.0625 221.1875 C-102.58724166 211.4037334 -101.66066342 201.67660778 -100.625 191.9375 C-100.50278076 190.73504639 -100.38056152 189.53259277 -100.25463867 188.29370117 C-100.13064697 187.16037354 -100.00665527 186.0270459 -99.87890625 184.859375 C-99.77006104 183.8394043 -99.66121582 182.81943359 -99.54907227 181.76855469 C-99.0625 179.1875 -99.0625 179.1875 -97.0625 176.1875 C-97.64773437 175.95675781 -98.23296875 175.72601563 -98.8359375 175.48828125 C-101.6292128 173.85642042 -102.87242328 172.04164355 -104.6875 169.375 C-105.27789062 168.52292969 -105.86828125 167.67085937 -106.4765625 166.79296875 C-110.53308824 160.12867647 -110.53308824 160.12867647 -109.0625 157.1875 C-109.7225 157.1875 -110.3825 157.1875 -111.0625 157.1875 C-114.86861258 147.83080658 -115.55848228 138.76757548 -112.0625 129.1875 C-111.918125 128.3625 -111.77375 127.5375 -111.625 126.6875 C-111.0625 124.1875 -111.0625 124.1875 -109.4765625 121.52734375 C-107.75254688 117.4554284 -108.12898944 114.46675486 -108.875 110.25 C-111.12602459 96.25102459 -111.12602459 96.25102459 -109.0625 94.1875 C-108.93149078 91.30529715 -108.92301437 88.74544253 -109.625 85.9375 C-116.33682797 43.74886706 -65.74590082 11.59173847 -31.0625 3.1875 C-29.7425 3.1875 -28.4225 3.1875 -27.0625 3.1875 C-27.0625 3.8475 -27.0625 4.5075 -27.0625 5.1875 C-26.47069946 4.48137573 -26.47069946 4.48137573 -25.86694336 3.76098633 C-19.73488396 -1.58620929 -7.61682515 -0.0854812 0 0 Z M-13.0625 1.1875 C-9.0625 2.1875 -9.0625 2.1875 -9.0625 2.1875 Z M68.9375 47.1875 C69.9375 49.1875 69.9375 49.1875 69.9375 49.1875 Z M68.9375 60.1875 C69.9375 62.1875 69.9375 62.1875 69.9375 62.1875 Z " fill="#312311" transform="translate(165.0625,12.8125)"/>
<path d="M0 0 C1.59455176 0.28854961 3.19277643 0.55707738 4.79296875 0.8125 C9.3194189 1.61253764 13.68769874 2.68993205 18.109375 3.9453125 C19.35976562 4.29980469 20.61015625 4.65429688 21.8984375 5.01953125 C24.45550917 5.74928915 27.00515985 6.49742423 29.5546875 7.25390625 C41.06926381 10.48129776 51.40562594 11.51666955 63 8 C72.6537276 7.58920308 75.86064304 29.60238371 77.296875 38.1171875 C77.8543373 41.07687077 77.8543373 41.07687077 79.640625 43.5703125 C81.30338665 46.54226004 80.99891252 47.82164197 80 51 C77.39898714 51.86500888 74.79493589 52.71726928 72.1875 53.5625 C71.44951172 53.80935547 70.71152344 54.05621094 69.95117188 54.31054688 C61.75382798 56.9440827 61.75382798 56.9440827 59.8125 51.9375 C59.4103125 50.4834375 59.4103125 50.4834375 59 49 C57.04472438 58.65417336 56.21723756 65.52937371 59.85546875 74.82421875 C61.58764475 79.63056375 62.75589555 84.56371191 63.97265625 89.51953125 C64.8980282 93.03299475 64.8980282 93.03299475 66.609375 96.20703125 C68.31861752 99.63992001 68.2270547 102.21575508 68 106 C62.64677955 107.38389867 57.33535193 107.02457386 51.85742188 106.87304688 C46.53214864 106.79665055 42.13072776 107.57448969 37 109 C34 109.125 34 109.125 32 109 C32.51525603 103.71862571 34.25477117 100.42778844 37 96 C31.7275477 100.21028351 27.98084806 103.91410189 25 110 C26.65 109.34 28.3 108.68 30 108 C30.515625 108.61875 31.03125 109.2375 31.5625 109.875 C34.54458615 112.47476742 37.18446201 113.11949123 41 114 C38.16192775 115.89204816 35.80558615 116.69829513 32.55444336 117.59692383 C21.60237985 120.65228557 13.7401264 125.27502899 6.47265625 134.203125 C5.06935151 135.91538012 3.59018136 137.46203355 2 139 C-1.67299227 135.86715366 -3.76302344 132.79429956 -6 128.5 C-8.24691637 124.23939149 -10.31289814 121.17262253 -14 118 C-15.43783864 116.7087103 -16.87530147 115.4170021 -18.3125 114.125 C-20.55694932 112.14066897 -22.80772702 110.16552824 -25.078125 108.2109375 C-44.29163727 91.64495645 -44.29163727 91.64495645 -43 76 C-42.93425781 75.19030762 -42.86851563 74.38061523 -42.80078125 73.54638672 C-41.06278332 54.03308614 -41.06278332 54.03308614 -33 46 C-31.10599334 43.7756842 -29.3023361 41.48627848 -27.5 39.1875 C-27.04230225 38.63513672 -26.58460449 38.08277344 -26.11303711 37.51367188 C-21.63836931 31.88827685 -23.42297682 29.63698583 -26.9375 24 C-32.96581024 14.28360807 -33.27126719 7.9389788 -24 0 C-16.52310563 -3.83715206 -7.70338274 -2.52110708 0 0 Z " fill="#D8B275" transform="translate(150,69)"/>
<path d="M0 0 C0.58652344 0.16242188 1.17304687 0.32484375 1.77734375 0.4921875 C5.99216349 1.45515159 9.91336381 1.36221206 14 0 C14.01401855 1.57297852 14.01401855 1.57297852 14.02832031 3.17773438 C14.06844378 7.09937728 14.13426226 11.02025398 14.20751953 14.94140625 C14.23560037 16.63271174 14.25687854 18.32414532 14.27099609 20.015625 C14.29260608 22.45899425 14.33934334 24.90084425 14.390625 27.34375 C14.39185364 28.08991577 14.39308228 28.83608154 14.39434814 29.6048584 C14.60100497 37.15215996 18.02291819 45.95354484 24.74780273 50.06982422 C31.34394989 54.14597722 33.66237229 59.57626942 36.5317688 66.59197998 C37.86655325 69.85404438 39.27593312 73.08407261 40.671875 76.3203125 C41.08851158 77.29552353 41.08851158 77.29552353 41.51356506 78.29043579 C44.14653121 84.42788848 47.04914923 90.4153191 50.0625 96.375 C50.50311768 97.25220703 50.94373535 98.12941406 51.39770508 99.03320312 C53.80003716 103.77189723 56.32226295 108.41136054 59 113 C58.78065796 111.92685547 58.78065796 111.92685547 58.55688477 110.83203125 C57.88898299 107.55531202 57.22570795 104.27767234 56.5625 101 C56.33240234 99.87464844 56.10230469 98.74929688 55.86523438 97.58984375 C54.68403201 91.73518856 53.63329173 85.93983965 53 80 C53.94875 80.845625 54.8975 81.69125 55.875 82.5625 C60.34734785 86.39335957 65.1224317 89.70957694 70 93 C70.64710938 93.45503906 71.29421875 93.91007812 71.9609375 94.37890625 C80.98046729 100.44901174 91.30315636 103.56375045 102 105 C101.34766842 108.69654559 99.71519986 111.30693983 97.6875 114.4375 C97.09324219 115.36433594 96.49898438 116.29117188 95.88671875 117.24609375 C94.04006616 119.94151834 92.07427339 122.47698755 90 125 C95.259813 122.66375552 99.12652328 120.3700763 103 116 C103.85078125 115.06607422 103.85078125 115.06607422 104.71875 114.11328125 C108.18947189 110.25283847 111.17485373 106.34637888 114 102 C115 102 115 102 115.14282227 104.59521484 C115.29760387 107.81928733 115.40967197 111.04144999 115.49438477 114.26806641 C115.53923678 115.65542444 115.60035186 117.04236712 115.67895508 118.42822266 C116.27103854 129.14764226 114.3251286 134.91118951 106 142 C105.05769531 142.88816406 104.11539063 143.77632812 103.14453125 144.69140625 C102.37496094 145.30886719 101.60539062 145.92632812 100.8125 146.5625 C100.03519531 147.20316406 99.25789063 147.84382812 98.45703125 148.50390625 C93.47357679 151.53834673 89.75769644 151.35810335 84.5625 149 C83.51449219 148.52820313 82.46648437 148.05640625 81.38671875 147.5703125 C80.26910156 147.05210937 79.15148437 146.53390625 78 146 C76.85144531 145.50242187 75.70289063 145.00484375 74.51953125 144.4921875 C54.79749829 135.74093172 -17.82087508 96.06233386 -18.015625 70.98828125 C-16.11915433 67.2755752 -12.51590041 64.93761545 -9.34765625 62.31640625 C-5.41858729 57.88011644 -5.55659361 51.64007329 -5 46 C-4.86988525 44.77385986 -4.73977051 43.54771973 -4.60571289 42.28442383 C-4.21096605 38.39996552 -3.85036796 34.5136993 -3.5 30.625 C-2.57078849 20.37304004 -1.43540926 10.19177007 0 0 Z " fill="#D7B174" transform="translate(78,197)"/>
<path d="M0 0 C1.12599609 0.00064453 2.25199219 0.00128906 3.41210938 0.00195312 C11.6556326 0.0465663 11.6556326 0.0465663 13.9375 1.1875 C16.52998672 1.45925818 19.12198511 1.63322568 21.72265625 1.80859375 C23.9375 2.1875 23.9375 2.1875 24.9375 4.1875 C25.49050781 3.99027344 26.04351562 3.79304688 26.61328125 3.58984375 C41.07239178 1.08683806 56.08997291 18.92989823 62.9375 29.4375 C63.32357422 30.02789062 63.70964844 30.61828125 64.10742188 31.2265625 C66.18916906 34.55434642 67.30046889 37.33877038 67.9375 41.1875 C68.5975 42.1775 69.2575 43.1675 69.9375 44.1875 C72.44105808 51.69817423 71.87678646 60.83179667 68.6875 68 C66.56004718 73.11637422 67.2174839 75.38423645 69.65234375 80.23046875 C71.62728957 84.77464499 72.48278446 89.54282371 73.453125 94.38720703 C74.26634985 98.19528879 74.82468335 100.7382048 77.9375 103.1875 C82.1835706 110.10702246 81.76459801 115.38523072 77.9375 122.375 C74.73643296 128.8522765 74.24422322 134.06215535 74.9375 141.1875 C75.2675 141.1875 75.5975 141.1875 75.9375 141.1875 C75.96439449 144.14589355 75.98428741 147.10404427 76 150.0625 C76.00837891 150.90425781 76.01675781 151.74601563 76.02539062 152.61328125 C76.02861328 153.41894531 76.03183594 154.22460938 76.03515625 155.0546875 C76.04039307 155.79831543 76.04562988 156.54194336 76.05102539 157.30810547 C75.9375 159.1875 75.9375 159.1875 74.9375 161.1875 C74.70183251 163.97623193 74.55548783 166.76358257 74.4140625 169.55859375 C73.886456 172.46907878 73.22031982 173.38688009 70.9375 175.1875 C71.5975 175.1875 72.2575 175.1875 72.9375 175.1875 C72.87239583 177.140625 72.80729167 179.09375 72.7421875 181.046875 C72.96640761 183.50432741 73.83153439 185.0012889 74.9375 187.1875 C75.55910526 191.88610449 74.97326381 196.40564768 73.9375 201 C72.65783607 206.74046427 72.77081087 212.3348596 72.9375 218.1875 C72.9375 218.8475 72.9375 219.5075 72.9375 220.1875 C73.5975 221.1775 74.2575 222.1675 74.9375 223.1875 C75.0625 226.375 75.0625 226.375 74.9375 229.1875 C75.2675 229.1875 75.5975 229.1875 75.9375 229.1875 C75.96434312 232.00006281 75.98426188 234.81237241 76 237.625 C76.00837891 238.42744141 76.01675781 239.22988281 76.02539062 240.05664062 C76.05078125 246.07421875 76.05078125 246.07421875 74.9375 247.1875 C74.751875 248.92 74.751875 248.92 74.5625 250.6875 C73.37384731 261.03249291 69.46265413 272.45962624 58.25 274.6875 C52.76587911 275.90544587 47.95736891 277.69024198 42.9375 280.1875 C45.11521558 288.17245712 52.30940619 292.57290802 58.9140625 296.765625 C63.69304431 300.12382844 65.61113337 302.12881591 62.9375 307.1875 C50.73309118 325.25563627 50.73309118 325.25563627 44.9375 327.1875 C44.79570312 327.78433594 44.65390625 328.38117188 44.5078125 328.99609375 C41.66250772 339.92907993 17.54135868 353.53483653 7.75 353.3125 C7.00041016 353.30347656 6.25082031 353.29445313 5.47851562 353.28515625 C3.63137346 353.26162578 1.78439588 353.22575561 -0.0625 353.1875 C-0.0625 352.5275 -0.0625 351.8675 -0.0625 351.1875 C-0.60390625 351.38859375 -1.1453125 351.5896875 -1.703125 351.796875 C-4.85847066 352.31928322 -6.81262613 351.50999377 -9.8125 350.4375 C-10.87855469 350.06238281 -11.94460937 349.68726563 -13.04296875 349.30078125 C-15.41178656 348.42741375 -17.77075181 347.53647911 -20.125 346.625 C-24.08510821 345.09870829 -28.13951981 344.05831823 -32.25390625 343.03125 C-35.64870108 342.01139509 -38.82959048 340.62296336 -42.0625 339.1875 C-43.43840272 338.59932531 -44.81472264 338.01212585 -46.19140625 337.42578125 C-55.87745261 333.24277492 -65.05054571 328.70352777 -74.0625 323.1875 C-74.9280249 322.65987061 -74.9280249 322.65987061 -75.81103516 322.12158203 C-110.31775761 300.95327283 -110.31775761 300.95327283 -108.0625 294.1875 C-104.69831592 295.59268745 -102.1257401 297.69279563 -99.34570312 300.01953125 C-75.53701448 319.92309107 -44.83876661 337.06762231 -14.34765625 343.6484375 C-11.07654594 344.42008403 -8.13732815 345.84575681 -5.0625 347.1875 C6.6749558 351.05233797 6.6749558 351.05233797 17.6875 346.6875 C18.72390625 345.96046875 19.7603125 345.2334375 20.828125 344.484375 C28.81794661 338.63710251 28.81794661 338.63710251 36.09375 331.953125 C37.9375 330.1875 37.9375 330.1875 39.9375 330.1875 C40.32615234 329.29804687 40.32615234 329.29804687 40.72265625 328.390625 C42.03037375 326.01907301 43.35937176 324.73103199 45.375 322.9375 C51.64166167 316.89011379 56.16337762 309.41889125 60.9375 302.1875 C60.19113281 301.91164063 59.44476563 301.63578125 58.67578125 301.3515625 C49.72252526 297.54547079 36.9375 287.46420674 36.9375 277.1875 C39.31605027 276.23607989 41.69474073 275.28503623 44.07421875 274.3359375 C45.91307726 273.59838716 47.74927787 272.85415547 49.58203125 272.1015625 C50.84080078 271.58722656 50.84080078 271.58722656 52.125 271.0625 C52.94613281 270.72476562 53.76726562 270.38703125 54.61328125 270.0390625 C56.9375 269.1875 56.9375 269.1875 60.8125 268.4375 C65.47836604 266.57115358 66.3465946 263.77608362 67.9375 259.1875 C68.2365625 258.35347656 68.535625 257.51945312 68.84375 256.66015625 C72.75052704 243.76417464 71.79689161 230.1224877 68.609375 217.20703125 C67.45108539 212.00146222 67.6161667 207.23599979 68.4375 202 C68.92226376 198.30367636 69.14608633 194.72549741 69.25 191 C69.28738281 189.81019531 69.32476562 188.62039062 69.36328125 187.39453125 C68.7549514 182.81252382 67.02854867 180.6024678 62.41796875 179.6875 C59.17293902 179.03338377 58.28153282 177.74403568 56.25 175.1875 C53.96870707 172.22557329 53.96870707 172.22557329 50.9375 170.1875 C50.9375 168.1875 50.9375 168.1875 52.9375 167.1875 C53.29105339 164.06964887 53.29105339 164.06964887 50.9375 162.1875 C51.5975 162.1875 52.2575 162.1875 52.9375 162.1875 C52.62146495 157.55231932 51.51550074 154.00072712 49.625 149.75 C47.1708459 144.13949164 45.62847653 138.5693856 44.28198242 132.61938477 C43.49932842 129.2046692 42.56218196 126.28213231 40.9375 123.1875 C40.40034795 116.74167536 41.77420561 110.51291323 42.9375 104.1875 C45.96677773 105.70213887 46.00855493 108.06889869 46.9375 111.1875 C64.25910615 107.75382031 64.25910615 107.75382031 67.9375 92.1875 C66.16303525 83.45204639 66.16303525 83.45204639 62.9375 75.1875 C62.59952118 71.55422764 62.76183306 69.53151443 64.4375 66.25 C73.2191341 47.1668336 56.93737026 22.08814685 40.48193359 12.93823242 C20.79802657 2.70137846 -2.6677173 3.2618518 -24.0625 7.1875 C-25.81046875 7.496875 -25.81046875 7.496875 -27.59375 7.8125 C-45.45529581 11.2899691 -62.34101895 18.07630846 -76.0625 30.1875 C-76.89394531 30.87585938 -77.72539063 31.56421875 -78.58203125 32.2734375 C-103.05487883 53.0997932 -108.69299823 80.62283698 -103.8125 111.25 C-102.83847627 117.75025561 -103.58706559 120.80057666 -107.0625 126.1875 C-112.78434749 142.78085773 -108.15888846 158.8147089 -96.86328125 171.6953125 C-91.49426953 179.12574521 -95.74873571 194.44974973 -96.73730469 203.25585938 C-97.09223682 206.45557785 -97.42438289 209.65734845 -97.7578125 212.859375 C-98.00405768 215.11470926 -98.25143816 217.36991988 -98.5 219.625 C-98.60997314 220.69709717 -98.71994629 221.76919434 -98.83325195 222.8737793 C-98.94886475 223.88351807 -99.06447754 224.89325684 -99.18359375 225.93359375 C-99.2808374 226.82747803 -99.37808105 227.7213623 -99.47827148 228.64233398 C-102.64632711 242.44382998 -125.06717189 252.20649617 -136.0625 259.1875 C-134.39551913 263.7016632 -132.0263256 266.91433677 -128.875 270.5 C-128.1329834 271.35875732 -128.1329834 271.35875732 -127.37597656 272.23486328 C-126.39041429 273.37375667 -125.40203762 274.51022161 -124.41064453 275.64404297 C-123.27477862 276.9444675 -122.14978553 278.25437737 -121.02734375 279.56640625 C-117.23508087 283.98063479 -113.23370883 288.13039719 -109.0625 292.1875 C-113.93360012 294.62305006 -118.04803194 289.57744172 -121.25 286.3125 C-122.10980469 285.44882812 -122.96960938 284.58515625 -123.85546875 283.6953125 C-125.77325275 281.51616679 -126.87051704 279.78412015 -128.0625 277.1875 C-129.19662654 276.05337346 -130.33255498 274.92095088 -131.48046875 273.80078125 C-133.56371135 271.67638818 -135.54921252 269.49728022 -137.5 267.25 C-138.22058594 266.43660156 -138.94117188 265.62320312 -139.68359375 264.78515625 C-142.47322204 259.52990749 -139.37839813 255.80398457 -134.875 252.9375 C-133.98683594 252.35613281 -133.09867188 251.77476562 -132.18359375 251.17578125 C-131.15363281 250.51964844 -130.12367188 249.86351562 -129.0625 249.1875 C-124.60411962 246.25337281 -120.17317382 243.27821367 -115.74365234 240.30078125 C-114.31067455 239.35184446 -112.85473598 238.43773141 -111.39453125 237.53125 C-106.60365164 234.3896896 -105.11782912 231.99136164 -104.51171875 226.23828125 C-103.96463196 223.74071111 -102.98629928 222.81215623 -101.0625 221.1875 C-101.7225 221.1875 -102.3825 221.1875 -103.0625 221.1875 C-102.58724166 211.4037334 -101.66066342 201.67660778 -100.625 191.9375 C-100.50278076 190.73504639 -100.38056152 189.53259277 -100.25463867 188.29370117 C-100.13064697 187.16037354 -100.00665527 186.0270459 -99.87890625 184.859375 C-99.77006104 183.8394043 -99.66121582 182.81943359 -99.54907227 181.76855469 C-99.0625 179.1875 -99.0625 179.1875 -97.0625 176.1875 C-97.64773437 175.95675781 -98.23296875 175.72601563 -98.8359375 175.48828125 C-101.6292128 173.85642042 -102.87242328 172.04164355 -104.6875 169.375 C-105.27789062 168.52292969 -105.86828125 167.67085937 -106.4765625 166.79296875 C-110.53308824 160.12867647 -110.53308824 160.12867647 -109.0625 157.1875 C-109.7225 157.1875 -110.3825 157.1875 -111.0625 157.1875 C-114.86861258 147.83080658 -115.55848228 138.76757548 -112.0625 129.1875 C-111.918125 128.3625 -111.77375 127.5375 -111.625 126.6875 C-111.0625 124.1875 -111.0625 124.1875 -109.4765625 121.52734375 C-107.75254688 117.4554284 -108.12898944 114.46675486 -108.875 110.25 C-111.12602459 96.25102459 -111.12602459 96.25102459 -109.0625 94.1875 C-108.93149078 91.30529715 -108.92301437 88.74544253 -109.625 85.9375 C-116.33682797 43.74886706 -65.74590082 11.59173847 -31.0625 3.1875 C-29.7425 3.1875 -28.4225 3.1875 -27.0625 3.1875 C-27.0625 3.8475 -27.0625 4.5075 -27.0625 5.1875 C-26.47069946 4.48137573 -26.47069946 4.48137573 -25.86694336 3.76098633 C-19.73488396 -1.58620929 -7.61682515 -0.0854812 0 0 Z M-13.0625 1.1875 C-9.0625 2.1875 -9.0625 2.1875 -9.0625 2.1875 Z M68.9375 47.1875 C69.9375 49.1875 69.9375 49.1875 69.9375 49.1875 Z M68.9375 60.1875 C69.9375 62.1875 69.9375 62.1875 69.9375 62.1875 Z " fill="#907D3B" transform="translate(165.0625,12.8125)"/>
<path d="M0 0 C0.66 0.99 1.32 1.98 2 3 C2.49757812 3.64195313 2.99515625 4.28390625 3.5078125 4.9453125 C9.187163 12.60008927 10.15088306 17.89445956 4.9375 26.0625 C1.02289554 32.6540705 1.97476282 38.54792029 2.79638672 45.84130859 C3.60074557 54.36905551 3.81455757 63.4500483 1.51171875 71.73046875 C0.38714041 76.71810247 0.29912651 81.90697754 0 87 C-0.7425 86.525625 -1.485 86.05125 -2.25 85.5625 C-4.79292532 83.93272635 -4.79292532 83.93272635 -7.0859375 83.5625 C-9.81358795 82.76090477 -10.85541697 81.18274559 -12.625 79 C-14.94555299 76.04427685 -14.94555299 76.04427685 -18 74 C-18 72 -18 72 -16 71 C-15.64644661 67.88214887 -15.64644661 67.88214887 -18 66 C-17.34 66 -16.68 66 -16 66 C-16.31603505 61.36481932 -17.42199926 57.81322712 -19.3125 53.5625 C-21.7666541 47.95199164 -23.30902347 42.3818856 -24.65551758 36.43188477 C-25.43817158 33.0171692 -26.37531804 30.09463231 -28 27 C-28.53715205 20.55417536 -27.16329439 14.32541323 -26 8 C-22.97072227 9.51463887 -22.92894507 11.88139869 -22 15 C-9.90509177 13.32345847 -9.90509177 13.32345847 -2 6 C-1.62875 4.9275 -1.2575 3.855 -0.875 2.75 C-0.58625 1.8425 -0.2975 0.935 0 0 Z " fill="#322512" transform="translate(234,109)"/>
<path d="M0 0 C8.01267497 10.38743365 8.37975637 20.93898904 8.4375 33.6875 C8.47037109 34.97978516 8.50324219 36.27207031 8.53710938 37.60351562 C8.58466407 45.97746495 8.61592236 52.68961812 -0.75 54.875 C-12.73052088 53.92560023 -20.61462486 37.89571195 -24 28 C-24.4125 26.824375 -24.825 25.64875 -25.25 24.4375 C-29.11539745 6.72109504 -18.43966812 -19.08727199 0 0 Z " fill="#D3B274" transform="translate(88,137)"/>
<path d="M0 0 C12.01504988 5.15972576 12.01504988 5.15972576 24.4375 3 C25.4275 2.505 26.4175 2.01 27.4375 1.5 C27.31872882 6.13207604 25.9072919 8.29081646 22.9375 11.625 C18.5578587 16.86444818 18.35878486 21.85419277 18.4375 28.5 C14.90506493 28.5 14.08007568 25.29237866 12.4375 22.5 C12.4375 21.51 12.4375 20.52 12.4375 19.5 C10.25957022 19.19130255 10.25957022 19.19130255 9.75 21.1875 C6.89308932 26.22110453 2.47887837 31.58323392 -3.5625 29.5 C-2.634375 28.778125 -1.70625 28.05625 -0.75 27.3125 C2.02584996 25.01569743 3.7757678 22.73114595 5.4375 19.5 C4.86902344 19.78875 4.30054688 20.0775 3.71484375 20.375 C-8.0371336 26.0253664 -8.0371336 26.0253664 -12.5625 21.5 C-12.6875 18.875 -12.6875 18.875 -12.5625 16.5 C-14.15191406 17.05880859 -14.15191406 17.05880859 -15.7734375 17.62890625 C-17.16132289 18.10716405 -18.54935122 18.58500722 -19.9375 19.0625 C-20.63617188 19.30935547 -21.33484375 19.55621094 -22.0546875 19.81054688 C-27.3359375 21.61328125 -27.3359375 21.61328125 -29.5625 20.5 C-24.57975158 13.42771192 -18.18585341 10.3844465 -9.5625 9.5 C-18.69973898 8.17094706 -26.59547665 8.15108566 -35.5625 10.5 C-36.89569778 10.83387509 -38.22899058 11.16737181 -39.5625 11.5 C-38.18674977 6.88198462 -36.17227139 5.08184494 -32.25 2.375 C-31.30511719 1.71242188 -30.36023438 1.04984375 -29.38671875 0.3671875 C-27.98873047 -0.55707031 -27.98873047 -0.55707031 -26.5625 -1.5 C-25.80582031 -2.07492188 -25.04914063 -2.64984375 -24.26953125 -3.2421875 C-15.98039698 -7.09370443 -7.91638423 -3.14389499 0 0 Z " fill="#332713" transform="translate(176.5625,119.5)"/>
<path d="M0 0 C0.82458206 -0.00637985 1.64916412 -0.0127597 2.49873352 -0.01933289 C3.83776985 -0.02100212 3.83776985 -0.02100212 5.20385742 -0.02270508 C6.12140305 -0.02603348 7.03894867 -0.02936188 7.98429871 -0.03279114 C9.92865497 -0.03786002 11.87301995 -0.04019948 13.81738281 -0.04003906 C16.78684945 -0.04221982 19.75594122 -0.06036008 22.7253418 -0.0793457 C24.6140124 -0.0822808 26.50268477 -0.08426482 28.39135742 -0.08520508 C29.27797562 -0.09239059 30.16459381 -0.09957611 31.07807922 -0.10697937 C44.61420839 -0.05704684 44.61420839 -0.05704684 45.22729492 6.67651367 C45.21311523 7.65620117 45.19893555 8.63588867 45.18432617 9.64526367 C45.17788086 10.62495117 45.17143555 11.60463867 45.16479492 12.61401367 C44.79986147 18.11347587 44.19856683 17.14526367 37.99682617 17.14526367 C38.65682617 15.49526367 39.31682617 13.84526367 39.99682617 12.14526367 C27.44413553 8.64218721 15.68438391 7.87105522 2.99682617 11.14526367 C4.3666612 14.30642143 4.98588997 15.13797287 7.99682617 17.14526367 C3.49075629 21.83908646 -1.84285174 20.20338061 -7.06567383 17.64526367 C-10.73898068 12.90551289 -8.67163604 6.16825137 -6.00317383 1.14526367 C-3.74469983 0.01602667 -2.50590663 0.01314612 0 0 Z " fill="#D6B476" transform="translate(177.003173828125,207.854736328125)"/>
<path d="M0 0 C0.63490039 3.64169278 0.79482791 7.31167374 1 11 C1.09861328 12.29357422 1.09861328 12.29357422 1.19921875 13.61328125 C1.64434277 24.21951231 -0.92328793 34.65510186 -3 45 C-6.00402687 45 -6.63091231 43.31570105 -8.5 41.0625 C-10.88926999 38.07954821 -10.88926999 38.07954821 -14 36 C-14 34 -14 34 -11.5 32.375 C-5.5265465 26.70021917 -10.28035512 16.94499031 -12.5 10.1875 C-13.1598373 8.14047578 -13.81625226 6.0923443 -14.46875 4.04296875 C-14.76201172 3.14602295 -15.05527344 2.24907715 -15.35742188 1.32495117 C-16 -1 -16 -1 -16 -4 C-15.34 -4 -14.68 -4 -14 -4 C-14 -3.34 -14 -2.68 -14 -2 C-12.948125 -2.515625 -11.89625 -3.03125 -10.8125 -3.5625 C-5.59648688 -5.77983351 -2.21661995 -5.53675198 0 0 Z " fill="#D5B275" transform="translate(230,147)"/>
<path d="M0 0 C1.28583984 1.30904297 1.28583984 1.30904297 2.59765625 2.64453125 C8.82500676 9.41248648 8.82500676 9.41248648 5.9375 15.1875 C6.00118615 17.32993013 6.00118615 17.32993013 6.3125 19.75 C6.46138672 21.07837891 6.46138672 21.07837891 6.61328125 22.43359375 C6.72027344 23.34238281 6.82726562 24.25117188 6.9375 25.1875 C7.12563475 26.89576355 7.31318514 28.60409161 7.5 30.3125 C7.644375 31.59125 7.78875 32.87 7.9375 34.1875 C4.10806034 33.60914069 2.08811338 31.87383869 -0.75 29.3125 C-1.53761719 28.61382812 -2.32523438 27.91515625 -3.13671875 27.1953125 C-6.32816113 23.86792633 -6.17681732 20.90447183 -6.125 16.5 C-6.11597656 15.50613281 -6.10695313 14.51226562 -6.09765625 13.48828125 C-6.0625 11.1875 -6.0625 11.1875 -2.0625 9.1875 C-3.99746654 5.41431524 -4.87094929 3.9409399 -9.0625 3.1875 C-9.32804687 3.81398437 -9.59359375 4.44046875 -9.8671875 5.0859375 C-10.22039062 5.90320313 -10.57359375 6.72046875 -10.9375 7.5625 C-11.28554687 8.37460938 -11.63359375 9.18671875 -11.9921875 10.0234375 C-13.0625 12.1875 -13.0625 12.1875 -15.0625 14.1875 C-15.67840354 2.656417 -12.86456248 -13.25263375 0 0 Z " fill="#352915" transform="translate(81.0625,141.8125)"/>
<path d="M0 0 C0.639375 0.66 1.27875 1.32 1.9375 2 C4.39316563 4.44866943 6.92858974 6.79828154 9.5 9.125 C10.2321875 9.78757812 10.964375 10.45015625 11.71875 11.1328125 C13.97420417 13.07230979 13.97420417 13.07230979 16.63671875 14.57421875 C21.59585441 17.56609398 23.66412912 19.95929855 21 25 C8.79559118 43.06813627 8.79559118 43.06813627 3 45 C2.80470703 45.88171875 2.80470703 45.88171875 2.60546875 46.78125 C0.83941136 53.25299579 -8.41013062 58.616658 -14 62 C-13.41871978 58.62857472 -12.41869268 57.33845169 -10 55 C-8.44869392 53.15659049 -6.92292557 51.29458791 -5.40234375 49.42578125 C-4 48 -4 48 -2 48 C-1.74089844 47.40703125 -1.48179687 46.8140625 -1.21484375 46.203125 C0.09287375 43.83157301 1.42187176 42.54353199 3.4375 40.75 C9.70416167 34.70261379 14.22587762 27.23139125 19 20 C18.24074219 19.70867187 17.48148438 19.41734375 16.69921875 19.1171875 C11.65261466 17.02843385 8.3218518 14.93393508 6 10 C4.46092874 8.46092874 2.87579938 7.00070376 1.2421875 5.5625 C0 4 0 4 0 0 Z " fill="#877632" transform="translate(207,295)"/>
<path d="M0 0 C-0.7528125 -0.2165625 -1.505625 -0.433125 -2.28125 -0.65625 C-22.60905359 -5.98489754 -44.92663292 -3.13238584 -60 13 C-60.66 12.67 -61.32 12.34 -62 12 C-51.78641372 -0.53370959 -12.33312595 -24.66625189 0 0 Z " fill="#885C21" transform="translate(143,59)"/>
<path d="M0 0 C14.14041057 0.37162708 27.9474985 1.86850881 40 10 C41.36125 10.8971875 41.36125 10.8971875 42.75 11.8125 C49.24539586 18.1274682 50.81902422 24.04992487 51 33 C48.9471309 30.33487169 47.13629236 27.61338758 45.375 24.75 C34.65875471 8.55537494 17.983117 4.78285046 0 2 C0 1.34 0 0.68 0 0 Z " fill="#885C21" transform="translate(138,29)"/>
<path d="M0 0 C0.09539062 0.58007812 0.19078125 1.16015625 0.2890625 1.7578125 C-0.17242187 1.39429687 -0.63390625 1.03078125 -1.109375 0.65625 C-20.6154788 -14.37809878 -39.49506533 -18.59472816 -63.7109375 -15.2421875 C-54.76021694 -33.14362863 -4.74521985 -14.96569336 0 0 Z " fill="#865B20" transform="translate(172.7109375,57.2421875)"/>
<path d="M0 0 C18.03419205 1.56819061 30.39465652 12.75058293 30.22265625 31.10546875 C29.77530136 36.92108237 28.42117179 42.03704489 24 46 C24.2475 44.39125 24.2475 44.39125 24.5 42.75 C27.08780502 20.88884119 19.48363541 9.64738326 0 1 C0 0.67 0 0.34 0 0 Z " fill="#895D21" transform="translate(171,24)"/>
<path d="M0 0 C0.53195312 2.8941856 1.05086335 5.78971515 1.5625 8.6875 C1.71396484 9.50412109 1.86542969 10.32074219 2.02148438 11.16210938 C3.34342469 18.75558047 1.92399582 23.47295101 -1.0625 30.5 C-2.88702253 35.3653934 -3.2246966 40.1489338 -3.5625 45.3125 C-3.64628906 46.56675781 -3.73007812 47.82101563 -3.81640625 49.11328125 C-3.87699219 50.06589844 -3.93757813 51.01851562 -4 52 C-10.2664935 50.43337663 -8.24931133 44.90036807 -8 39 C-7.0625 35.5625 -7.0625 35.5625 -6 33 C-5.855625 32.175 -5.71125 31.35 -5.5625 30.5 C-5 28 -5 28 -3.4375 25.30859375 C-1.69560682 21.29939938 -1.93867574 18.87534342 -2.4375 14.5625 C-4.09538462 0 -4.09538462 0 0 0 Z " fill="#8A763E" transform="translate(59,109)"/>
<path d="M0 0 C2.46172507 2.46172507 2.24627007 3.12339256 2.1875 6.5 C2.18105469 7.2940625 2.17460938 8.088125 2.16796875 8.90625 C2.02735194 11.49621551 1.79733805 14.03939056 1.5234375 16.6171875 C0.93577394 22.27945524 0.66905717 27.93856335 0.4375 33.625 C0.39431641 34.62917969 0.35113281 35.63335937 0.30664062 36.66796875 C0.20190141 39.11188383 0.09972744 41.55587617 0 44 C-8.21786007 35.78213993 -4.96785167 9.93570333 0 0 Z " fill="#865B20" transform="translate(119,191)"/>
<path d="M0 0 C-3.56519592 8.84480299 -16.2370676 14.04562946 -24.16040039 18.58642578 C-27.01409141 20.22340642 -29.74834184 21.81032661 -32.37890625 23.79296875 C-34 25 -34 25 -36 25 C-32.34725008 16.63994532 -23.30818581 12.07775185 -15.75 7.6875 C-14.86570312 7.16349609 -13.98140625 6.63949219 -13.0703125 6.09960938 C-2.72987356 0 -2.72987356 0 0 0 Z " fill="#855A20" transform="translate(106,87)"/>
<path d="M0 0 C3.22805481 3.02630138 6.01125793 6.20929757 8.75 9.6875 C12.29172557 14.17814072 16.02704735 18.43446009 19.87890625 22.66015625 C22.65217289 25.71943197 25.32986479 28.85060975 28 32 C19.39110203 30.87710027 12.57163735 23.66755174 9 16 C7.35570171 14.31126121 5.68615782 12.64694485 4 11 C-1.93181818 5.05244755 -1.93181818 5.05244755 0 0 Z " fill="#775E33" transform="translate(28,274)"/>
<path d="M0 0 C-0.598125 0.391875 -1.19625 0.78375 -1.8125 1.1875 C-4.11497017 2.88206529 -4.11497017 2.88206529 -5.375 5.375 C-11.97243279 16.03239144 -21.84819226 15.87166735 -33 15 C-33 14.34 -33 13.68 -33 13 C-33.5775 13.20625 -34.155 13.4125 -34.75 13.625 C-37.51967567 14.08661261 -38.64561267 13.42944945 -41 12 C-41 11.34 -41 10.68 -41 10 C-40.34 10 -39.68 10 -39 10 C-39 10.66 -39 11.32 -39 12 C-38.13375 11.62875 -37.2675 11.2575 -36.375 10.875 C-32.35323946 9.83232134 -30.81700294 10.5686239 -27 12 C-21.79385843 12.5559957 -19.27953785 11.31042047 -15.0625 8.3125 C-14.02738281 7.58675781 -12.99226563 6.86101562 -11.92578125 6.11328125 C-10.96027344 5.41589844 -9.99476563 4.71851563 -9 4 C-8.23042969 3.45730469 -7.46085937 2.91460937 -6.66796875 2.35546875 C-1.95316456 -0.97658228 -1.95316456 -0.97658228 0 0 Z " fill="#9F8A41" transform="translate(198,351)"/>
<path d="M0 0 C4.25371458 0.75113578 8.32557874 1.95084385 12.4375 3.25 C13.47680664 3.5761731 13.47680664 3.5761731 14.53710938 3.90893555 C21.42361946 6.09347565 28.21851869 8.50992483 35 11 C33.02 11.99 33.02 11.99 31 13 C31 12.34 31 11.68 31 11 C30.34 11 29.68 11 29 11 C29 11.66 29 12.32 29 13 C24.22843282 11.89231476 19.76734253 10.59341123 15.22265625 8.77734375 C11.6749087 7.53656736 7.99621511 6.80700873 4.3203125 6.0390625 C1.22938401 4.65490934 0.8978707 3.16834834 0 0 Z " fill="#86743C" transform="translate(128,350)"/>
<path d="M0 0 C2.20995443 0 3.40394708 7.98899263 4 10 C4.28617188 10.93457031 4.57234375 11.86914062 4.8671875 12.83203125 C9.1875 27.54166667 9.1875 27.54166667 4 31 C3.01 29.68 2.02 28.36 1 27 C1.66 27 2.32 27 3 27 C2.59408861 21.04663291 0.56084443 16.35921419 -1.94140625 10.96484375 C-3.07786605 7.78191759 -3.19429581 5.35284826 -3 2 C-2.67 2.66 -2.34 3.32 -2 4 C-1.34 4 -0.68 4 0 4 C0 2.68 0 1.36 0 0 Z " fill="#3F351F" transform="translate(215,148)"/>
<path d="M0 0 C3.82898227 3.26988591 3.54915376 6.79943647 3.6875 11.5625 C3.72166016 12.34302734 3.75582031 13.12355469 3.79101562 13.92773438 C3.90477732 16.61854679 4 19.30652029 4 22 C4.66 22.99 5.32 23.98 6 25 C6.125 28.1875 6.125 28.1875 6 31 C6.33 31 6.66 31 7 31 C7 34.63 7 38.26 7 42 C3.99260861 42 4.58015117 40.78832346 4 38 C3.93209325 35.75092848 3.91500016 33.49998395 3.9375 31.25 C3.94652344 30.07953125 3.95554688 28.9090625 3.96484375 27.703125 C3.97644531 26.81109375 3.98804688 25.9190625 4 25 C3.01 25 2.02 25 1 25 C-1.27537854 16.40638284 -1.48759821 8.73963949 0 0 Z " fill="#8E7B42" transform="translate(234,211)"/>
<path d="M0 0 C0 13.2 0 26.4 0 40 C-4.48967947 35.51032053 -7.03570295 0 0 0 Z " fill="#81571F" transform="translate(132,207)"/>
<path d="M0 0 C0.67482422 0.51046875 0.67482422 0.51046875 1.36328125 1.03125 C6.42166858 4.84278034 11.53645662 8.56937551 16.6796875 12.265625 C20.42567094 15.06565303 21.30852618 16.57607443 22.125 21.125 C22.29257813 22.03507812 22.46015625 22.94515625 22.6328125 23.8828125 C22.75398438 24.58148438 22.87515625 25.28015625 23 26 C21 26 21 26 20.125 23.5 C18.01931356 19.22846464 14.28750345 16.91793821 10.58203125 14.0859375 C5.89019025 10.29555461 1.10023717 6.13959509 0 0 Z " fill="#403721" transform="translate(124,157)"/>
<path d="M0 0 C3.46672076 2.35737012 2.94764273 4.05962152 2.30004883 7.91577148 C1.63180935 12.55756194 1.63406894 17.29009076 1.48242188 21.97265625 C1.26985371 26.97001339 0.57750985 31.2483104 -1 36 C-4.32930284 34.33534858 -3.05994531 31.41688254 -3 28 C-2.67 27.67 -2.34 27.34 -2 27 C-1.86899078 24.11779715 -1.86051437 21.55794253 -2.5625 18.75 C-3.56974674 12.41873475 -2.33588941 5.91758651 0 0 Z " fill="#887831" transform="translate(58,80)"/>
<path d="M0 0 C-0.33 10.56 -0.66 21.12 -1 32 C-5.89063658 27.10936342 -5.20977792 22.22142128 -5.25 15.625 C-5.270625 14.78710938 -5.29125 13.94921875 -5.3125 13.0859375 C-5.39480149 0 -5.39480149 0 0 0 Z " fill="#885C20" transform="translate(187,240)"/>
<path d="M0 0 C3.36487781 1.40872325 5.05709457 2.99655472 7.1875 5.9375 C7.95126953 6.97197266 7.95126953 6.97197266 8.73046875 8.02734375 C13.71891493 15.77862166 11.91364942 27.61159284 7 35 C6.01 35.495 6.01 35.495 5 36 C5.48146484 34.51113281 5.48146484 34.51113281 5.97265625 32.9921875 C8.85227041 22.84594733 8.18064718 12.61544759 2 4 C1.31123732 2.67794546 0.63789716 1.34733419 0 0 Z " fill="#885C21" transform="translate(201,31)"/>
<path d="M0 0 C-1.49739583 1.23697917 -2.99479167 2.47395833 -4.4921875 3.7109375 C-6.39674846 5.3391891 -7.83572291 6.65473082 -8.92138672 8.93652344 C-10.10765713 11.205957 -11.30265954 12.38040616 -13.2578125 14.015625 C-14.19560547 14.80839844 -14.19560547 14.80839844 -15.15234375 15.6171875 C-15.80332031 16.15601563 -16.45429688 16.69484375 -17.125 17.25 C-17.78371094 17.80429687 -18.44242188 18.35859375 -19.12109375 18.9296875 C-20.74235058 20.2924831 -22.37051208 21.64705703 -24 23 C-25 20 -25 20 -23.375 18.4375 C-20.87437727 15.87107141 -18.62269721 13.17203076 -16.3671875 10.390625 C-15 9 -15 9 -13 9 C-12.7525 8.401875 -12.505 7.80375 -12.25 7.1875 C-10.80518682 4.65907694 -9.39755492 3.62187539 -7 2 C-6.319375 1.4225 -5.63875 0.845 -4.9375 0.25 C-3 -1 -3 -1 0 0 Z " fill="#76602F" transform="translate(218,334)"/>
<path d="M0 0 C-0.268125 0.66 -0.53625 1.32 -0.8125 2 C-2.25705047 5.64939067 -3.62871178 9.32245433 -5 13 C-0.545 12.505 -0.545 12.505 4 12 C4 12.99 4 13.98 4 15 C3.34 15 2.68 15 2 15 C1.7018576 17.2236068 1.7018576 17.2236068 4 18 C-1.11686131 17.60639528 -3.72655728 17.05906898 -7 13 C-8.98 13.66 -10.96 14.32 -13 15 C-11.58581617 10.73439116 -9.51748869 7.9940014 -6.5 4.6875 C-5.7059375 3.80449219 -4.911875 2.92148438 -4.09375 2.01171875 C-2 0 -2 0 0 0 Z " fill="#3E341E" transform="translate(187,165)"/>
<path d="M0 0 C-0.06058594 0.63164062 -0.12117187 1.26328125 -0.18359375 1.9140625 C-0.81125246 8.61552631 -1.27160458 15.30916038 -1.62109375 22.03125 C-2 25 -2 25 -4 28 C-6.20974236 23.27878339 -9.41991153 0 0 0 Z " fill="#855A20" transform="translate(172,240)"/>
<path d="M0 0 C0 2 0 2 -3 3 C-2.01 3.99 -1.02 4.98 0 6 C-1.093125 6.33 -2.18625 6.66 -3.3125 7 C-10.1519132 9.95683722 -10.31435391 17.55358583 -10.69140625 24.21484375 C-11 26 -11 26 -13 27 C-13.47239755 17.95446167 -13.60787039 -1.94398148 0 0 Z " fill="#D8BC7B" transform="translate(76,130)"/>
<path d="M0 0 C-1.28547424 2.57094847 -2.22542129 2.67245583 -4.8671875 3.69921875 C-6.06541138 4.1777832 -6.06541138 4.1777832 -7.2878418 4.66601562 C-8.141604 5.00310547 -8.99536621 5.34019531 -9.875 5.6875 C-17.50734348 8.78364608 -24.29050855 12.17519716 -31 17 C-26.13471449 5.79510003 -11.61488112 -0.56657957 0 0 Z " fill="#855A20" transform="translate(109,68)"/>
<path d="M0 0 C2.90230566 3.33765151 4.3398341 7.00682765 5.9375 11.07421875 C6.906842 13.34554925 6.906842 13.34554925 10 14 C11.00496852 17.01490557 11.10335303 19.04181692 11.0625 22.1875 C11.05347656 23.08855469 11.04445312 23.98960938 11.03515625 24.91796875 C11.02355469 25.60503906 11.01195312 26.29210937 11 27 C10.34 27 9.68 27 9 27 C8.34 30.63 7.68 34.26 7 38 C5.515 38.495 5.515 38.495 4 39 C4.48146484 37.48986328 4.48146484 37.48986328 4.97265625 35.94921875 C7.76381021 26.10724894 6.65984372 16.67557953 2.19140625 7.5859375 C1.01564299 5.03395298 0.43429618 2.7655182 0 0 Z M9 17 C10 19 10 19 10 19 Z " fill="#9A8242" transform="translate(225,43)"/>
<path d="M0 0 C-6.44383377 4.79859962 -12.90022786 9.2759091 -19.8828125 13.26171875 C-22.47201081 15.38753655 -22.72112131 16.7259642 -23 20 C-27 18 -27 18 -26.5625 15.375 C-24.15548617 10.17585014 -19.19430734 6.61082366 -13.5078125 5.5234375 C-10.50679663 4.89705724 -8.68723795 3.69104752 -6.1875 1.9375 C-5.39730469 1.38964844 -4.60710938 0.84179688 -3.79296875 0.27734375 C-2 -1 -2 -1 0 0 Z " fill="#927D45" transform="translate(51,257)"/>
<path d="M0 0 C1.66289062 0.00966797 1.66289062 0.00966797 3.359375 0.01953125 C4.50148437 0.03628906 5.64359375 0.05304687 6.8203125 0.0703125 C8.56828125 0.08384766 8.56828125 0.08384766 10.3515625 0.09765625 C13.21635827 0.12113818 16.08072785 0.15398109 18.9453125 0.1953125 C18.3059375 0.5046875 17.6665625 0.8140625 17.0078125 1.1328125 C15.00920429 2.0298288 15.00920429 2.0298288 13.9453125 3.1953125 C11.25295474 3.43209966 8.58033094 3.61729275 5.8828125 3.7578125 C4.74489258 3.82258789 4.74489258 3.82258789 3.58398438 3.88867188 C1.70465812 3.99504883 -0.17498994 4.09571184 -2.0546875 4.1953125 C-2.0546875 4.5253125 -2.0546875 4.8553125 -2.0546875 5.1953125 C-6.50318719 5.4986193 -8.73621042 5.25852211 -12.0546875 2.1953125 C-7.87705847 0.62121238 -4.45744269 -0.04595302 0 0 Z M-6.0546875 1.1953125 C-2.0546875 2.1953125 -2.0546875 2.1953125 -2.0546875 2.1953125 Z " fill="#7D6631" transform="translate(158.0546875,12.8046875)"/>
<path d="M0 0 C3.90282522 5.85423784 4.34245086 11.86469463 4.3125 18.6875 C4.32861328 19.43322266 4.34472656 20.17894531 4.36132812 20.94726562 C4.36560563 25.74234866 4.01210037 26.98386618 1 31 C0.67 20.77 0.34 10.54 0 0 Z " fill="#8C5F21" transform="translate(200,240)"/>
<path d="M0 0 C-4 4 -8 8 -12 12 C-12.48210937 12.58523437 -12.96421875 13.17046875 -13.4609375 13.7734375 C-15.58474567 15.46601559 -16.56144038 14.92497089 -19 14 C-16.78211458 11.5115229 -14.55678663 9.0307751 -12.31640625 6.5625 C-11.01349458 5.1211677 -9.7205871 3.67010793 -8.46484375 2.1875 C-5.61659693 -1.03623916 -4.06240626 -1.50889375 0 0 Z " fill="#877141" transform="translate(89,42)"/>
<path d="M0 0 C1.75443852 2.20962552 3.25407956 4.54755303 4.75 6.9375 C5.14832031 7.54529297 5.54664063 8.15308594 5.95703125 8.77929688 C8.8361401 13.30291365 10 16.69156033 10 22 C7.02318256 20.51159128 6.56740051 18.23553671 5.1875 15.25 C2.90399031 10.52626918 0.81991531 7.49249399 -3 4 C-3.6875 1.875 -3.6875 1.875 -4 0 C-4.66 -0.99 -5.32 -1.98 -6 -3 C-4.00243848 -4.99756152 -1.64286955 -1.42948007 0 0 Z " fill="#796733" transform="translate(223,35)"/>
<path d="M0 0 C-3.7674242 3.98270558 -7.19578676 6.96686881 -12.375 8.875 C-15.4453366 10.19085854 -17.75811668 11.99124756 -20.3515625 14.07421875 C-22 15 -22 15 -25 14 C-21.03579512 10.75449638 -16.93151731 7.76645569 -12.75 4.8125 C-4.48489752 -1.03497635 -4.48489752 -1.03497635 0 0 Z " fill="#917C40" transform="translate(61,249)"/>
<path d="M0 0 C0.33 10.89 0.66 21.78 1 33 C-2.89132829 27.16300756 -3.32249798 21.23418537 -3.25 14.4375 C-3.25773438 13.70853516 -3.26546875 12.97957031 -3.2734375 12.22851562 C-3.22941044 0 -3.22941044 0 0 0 Z " fill="#885C20" transform="translate(148,226)"/>
<path d="M0 0 C0 3.78671336 -6.69522217 5.71327573 -9.8125 7.4375 C-10.74126953 7.95376953 -11.67003906 8.47003906 -12.62695312 9.00195312 C-13.9659668 9.74155273 -13.9659668 9.74155273 -15.33203125 10.49609375 C-16.15421143 10.95169678 -16.9763916 11.4072998 -17.82348633 11.87670898 C-20 13 -20 13 -23 14 C-21.67016207 10.01048621 -19.0964234 8.68187368 -15.75 6.4375 C-15.17636719 6.03853516 -14.60273437 5.63957031 -14.01171875 5.22851562 C-9.24304794 1.97517415 -5.80941695 0 0 0 Z " fill="#8A5E21" transform="translate(110,99)"/>
<path d="M0 0 C8.36658538 7.23596573 10.12527031 16.68682423 6 27 C5.67 27 5.34 27 5 27 C4.96132812 25.80117188 4.96132812 25.80117188 4.921875 24.578125 C4.54763459 17.33146977 3.37189193 11.16647119 0.83984375 4.36328125 C0 2 0 2 0 0 Z " fill="#885C21" transform="translate(210,237)"/>
<path d="M0 0 C-0.495 0.70125 -0.99 1.4025 -1.5 2.125 C-5.71600606 10.20567827 -0.97845637 13.74216114 5 19 C-1.01448847 19 -6.68038101 11.21914273 -9 6 C-9 -0.08449004 -5.56684172 -0.30926898 0 0 Z " fill="#968345" transform="translate(211,288)"/>
<path d="M0 0 C0 1.65 0 3.3 0 5 C0.66 5 1.32 5 2 5 C2 6.98 2 8.96 2 11 C1.67 11 1.34 11 1 11 C0.34 15.62 -0.32 20.24 -1 25 C-6.48040779 23.1731974 -3.30785573 8.36479691 -1.9375 3 C-1 0 -1 0 0 0 Z " fill="#7F782A" transform="translate(67,201)"/>
<path d="M0 0 C0 3.21547292 -0.53540334 4.23353963 -2 7 C-2.268125 7.78375 -2.53625 8.5675 -2.8125 9.375 C-5.65221369 15.65226184 -10.01884981 19.0094249 -16 22 C-14.29905127 18.09164029 -11.73558567 14.89232866 -9.125 11.5625 C-8.69058594 11.00240234 -8.25617188 10.44230469 -7.80859375 9.86523438 C-5.23483552 6.55335629 -2.62767922 3.26932182 0 0 Z " fill="#8A753F" transform="translate(227,315)"/>
<path d="M0 0 C5.7542255 0 2.66210024 11.25570415 3 17 C3.66 17 4.32 17 5 17 C5.125 22.875 5.125 22.875 4 24 C4 25.32 4 26.64 4 28 C2.68 28 1.36 28 0 28 C0 18.76 0 9.52 0 0 Z " fill="#998544" transform="translate(236,236)"/>
<path d="M0 0 C7 4.64668094 7 4.64668094 7 6 C0.88514973 6.09706112 -4.93303301 5.77040851 -11 5 C-10.21625 4.401875 -9.4325 3.80375 -8.625 3.1875 C-2.91588785 -1.57009346 -2.91588785 -1.57009346 0 0 Z " fill="#916324" transform="translate(208,195)"/>
<path d="M0 0 C3.41265527 1.55483125 6.27374573 3.53679681 9.25 5.8125 C10.58804688 6.81216797 10.58804688 6.81216797 11.953125 7.83203125 C14.40047131 10.42416332 14.45849573 11.54318351 14 15 C-1.27139875 3.81419624 -1.27139875 3.81419624 0 0 Z " fill="#6F5A24" transform="translate(57,307)"/>
<path d="M0 0 C0.33 0 0.66 0 1 0 C1 20.46 1 40.92 1 62 C0.67 62 0.34 62 0 62 C0 41.54 0 21.08 0 0 Z " fill="#787439" transform="translate(264,182)"/>
<path d="M0 0 C-0.33 0.99 -0.66 1.98 -1 3 C-0.67 3.66 -0.34 4.32 0 5 C-1.95513161 5.696553 -3.91422476 6.38199565 -5.875 7.0625 C-6.96554688 7.44535156 -8.05609375 7.82820312 -9.1796875 8.22265625 C-12 9 -12 9 -14 8 C-10.98545834 3.88926137 -5.77470214 -2.88735107 0 0 Z " fill="#3A2F1A" transform="translate(161,132)"/>
<path d="M0 0 C0 6.24225296 -11.67550013 7.83829094 -17 9 C-18 7 -18 7 -15.33203125 5.46875 C-14.15916489 4.81194484 -12.98597028 4.15572557 -11.8125 3.5 C-10.66394531 2.8503125 -9.51539062 2.200625 -8.33203125 1.53125 C-5.14862918 0.06830321 -3.42692535 -0.36140832 0 0 Z " fill="#907C42" transform="translate(115,24)"/>
<path d="M0 0 C3 3 3 3 3 5 C3.66 5 4.32 5 5 5 C5.96070434 7.88211302 6.10581883 9.69850044 6.0625 12.6875 C6.05347656 13.49574219 6.04445312 14.30398437 6.03515625 15.13671875 C6.02355469 15.75160156 6.01195312 16.36648437 6 17 C5.236875 16.525625 4.47375 16.05125 3.6875 15.5625 C1.03589452 13.89893903 1.03589452 13.89893903 -2 13 C-1.34 8.71 -0.68 4.42 0 0 Z " fill="#473A21" transform="translate(228,179)"/>
<path d="M0 0 C-10.89 -0.33 -21.78 -0.66 -33 -1 C-33 -1.33 -33 -1.66 -33 -2 C-32.43079834 -2.02505615 -31.86159668 -2.0501123 -31.27514648 -2.07592773 C-28.66242687 -2.19293894 -26.04997638 -2.3151828 -23.4375 -2.4375 C-22.09461914 -2.49647461 -22.09461914 -2.49647461 -20.72460938 -2.55664062 C-0.87545956 -3.50183824 -0.87545956 -3.50183824 0 0 Z " fill="#A38B4B" transform="translate(185,18)"/>
<path d="M0 0 C0.33 0 0.66 0 1 0 C1.05447047 1.41623216 1.09300508 2.83308191 1.125 4.25 C1.14820313 5.03890625 1.17140625 5.8278125 1.1953125 6.640625 C0.9828378 9.20731941 0.28654105 10.7916067 -1 13 C-1 12.01 -1 11.02 -1 10 C-2.32 10.33 -3.64 10.66 -5 11 C-5.125 4.375 -5.125 4.375 -4 1 C-2.02 1.495 -2.02 1.495 0 2 C0 1.34 0 0.68 0 0 Z " fill="#2E2211" transform="translate(234,174)"/>
<path d="M0 0 C2.97066683 1.09785513 5.75145224 1.58717751 8.875 2.0625 C11.875 3.0625 11.875 3.0625 11.875 5.0625 C12.535 5.3925 13.195 5.7225 13.875 6.0625 C10.89128739 9.04621261 9.84465079 7.22697269 6.125 5.6875 C5.05765625 5.24664062 3.9903125 4.80578125 2.890625 4.3515625 C0.49944074 3.32942415 -1.81883183 2.26036405 -4.125 1.0625 C-2.125 -0.9375 -2.125 -0.9375 0 0 Z " fill="#8C8144" transform="translate(116.125,345.9375)"/>
<path d="M0 0 C6.7466443 6.19961909 9.26458554 11.86870698 8 21 C7.34 21.66 6.68 22.32 6 23 C5.85304687 21.60587891 5.85304687 21.60587891 5.703125 20.18359375 C4.85070557 13.13643655 4.0087159 7.87944999 0 2 C0 1.34 0 0.68 0 0 Z " fill="#895C21" transform="translate(220,237)"/>
<path d="M0 0 C0.27429625 5.39449293 0.36055646 8.51925805 -3 13 C-4.32 12.34 -5.64 11.68 -7 11 C-6.34 10.01 -5.68 9.02 -5 8 C-4.835 6.80375 -4.67 5.6075 -4.5 4.375 C-3.93671768 0.57284435 -3.76670043 0 0 0 Z " fill="#967F47" transform="translate(65,236)"/>
<path d="M0 0 C2.56610167 2.09069758 4.28117808 1.81434077 7.54296875 1.69921875 C9.03376953 1.65861328 9.03376953 1.65861328 10.5546875 1.6171875 C11.31394531 1.58238281 12.07320312 1.54757813 12.85546875 1.51171875 C12.85546875 2.51171875 12.85546875 2.51171875 9.49609375 3.1328125 C8.03254008 3.40488337 6.56899908 3.67702237 5.10546875 3.94921875 C4.37585938 4.08392578 3.64625 4.21863281 2.89453125 4.35742188 C-0.479998 4.98631142 -3.82087819 5.65494048 -7.14453125 6.51171875 C-6.29604864 3.89556404 -3.05877274 -3.97744851 0 0 Z " fill="#564C2E" transform="translate(144.14453125,124.48828125)"/>
<path d="M0 0 C2.28899112 0 2.05039676 5.79462805 2.16796875 7.6484375 C2.2076219 13.18401738 1.85792071 17.77459799 0 23 C-3.97114945 21.01442528 -2.06580512 15.2262051 -1 11.5625 C0.15272655 7.45591167 0.14883663 4.24184388 0 0 Z " fill="#6A562C" transform="translate(57,93)"/>
<path d="M0 0 C-0.39464492 4.42002309 -0.93223958 8.13790621 -2.625 12.25 C-3.98134319 15.9491178 -4.14451879 16.55118337 -3 20 C-3.66 20 -4.32 20 -5 20 C-5 19.01 -5 18.02 -5 17 C-5.66 17 -6.32 17 -7 17 C-7.33 15.35 -7.66 13.7 -8 12 C-6.68 11.67 -5.36 11.34 -4 11 C-3.93941406 10.37351562 -3.87882813 9.74703125 -3.81640625 9.1015625 C-3.73261719 8.28429687 -3.64882812 7.46703125 -3.5625 6.625 C-3.48128906 5.81289062 -3.40007812 5.00078125 -3.31640625 4.1640625 C-2.70758123 0 -2.70758123 0 0 0 Z M-2 3 C-1 5 -1 5 -1 5 Z " fill="#827526" transform="translate(236,70)"/>
<path d="M0 0 C3 1 3 1 4 10 C4.33 10 4.66 10 5 10 C5 13.63 5 17.26 5 21 C1.99260861 21 2.58015117 19.78832346 2 17 C1.93209325 14.75092848 1.91500016 12.49998395 1.9375 10.25 C1.94652344 9.07953125 1.95554688 7.9090625 1.96484375 6.703125 C1.97644531 5.81109375 1.98804688 4.9190625 2 4 C1.34 4 0.68 4 0 4 C0 2.68 0 1.36 0 0 Z " fill="#776331" transform="translate(236,232)"/>
<path d="M0 0 C0.639375 0.66 1.27875 1.32 1.9375 2 C5.7829235 5.85653744 9.90924419 9.40833422 14 13 C11.52256606 15.47743394 11.09647507 15.35470784 8 14 C7.31379969 12.67661368 6.65213539 11.34050052 6 10 C4.46262307 8.45849034 2.87616583 7.00102638 1.2421875 5.5625 C0 4 0 4 0 0 Z " fill="#6E5A34" transform="translate(207,295)"/>
<path d="M0 0 C2.58967303 3.80834269 1.81691368 6.61837206 1 11 C0.7834375 12.918125 0.7834375 12.918125 0.5625 14.875 C0 18 0 18 -2 19 C-1.67 16.69 -1.34 14.38 -1 12 C-1.66 12 -2.32 12 -3 12 C-2 0 -2 0 0 0 Z " fill="#998B3B" transform="translate(238,201)"/>
<path d="M0 0 C19 3.98387097 19 3.98387097 19 7 C14.4893383 6.70898957 0 5.76842614 0 0 Z " fill="#584E31" transform="translate(183,101)"/>
<path d="M0 0 C1.28584163 2.87202583 1.72240245 5.53293039 2.1953125 8.640625 C2.36289063 9.71828125 2.53046875 10.7959375 2.703125 11.90625 C2.82429687 12.72609375 2.94546875 13.5459375 3.0703125 14.390625 C-1.2139781 10.32793564 -5.43257492 5.46906587 -2.9296875 -0.609375 C-0.9296875 -1.609375 -0.9296875 -1.609375 0 0 Z " fill="#473D25" transform="translate(134.9296875,296.609375)"/>
<path d="M0 0 C0.99 -0.33 1.98 -0.66 3 -1 C3.66 -0.34 4.32 0.32 5 1 C3.21475351 2.19713017 1.4215972 3.38247279 -0.375 4.5625 C-1.87160156 5.55443359 -1.87160156 5.55443359 -3.3984375 6.56640625 C-6 8 -6 8 -8 7 C-2 -1 -2 -1 0 0 Z " fill="#39301C" transform="translate(175,315)"/>
<path d="M0 0 C5.28014878 5.28014878 1.3779988 14.47684868 -2 20 C-2.66 20.33 -3.32 20.66 -4 21 C-3.79503906 20.23816406 -3.59007812 19.47632812 -3.37890625 18.69140625 C-1.74722695 12.43793676 -0.53672183 6.44066194 0 0 Z " fill="#82581F" transform="translate(217,45)"/>
<path d="M0 0 C1.31652354 3.94957063 0.46234937 4.08918604 -2.25 7 C-2.87390625 7.680625 -3.4978125 8.36125 -4.140625 9.0625 C-5.06101563 10.0215625 -5.06101563 10.0215625 -6 11 C-6.51691406 11.56332031 -7.03382813 12.12664062 -7.56640625 12.70703125 C-9.54338277 14.49008092 -11.41020359 14.65002751 -14 15 C-13.319375 14.319375 -12.63875 13.63875 -11.9375 12.9375 C-11.48632812 12.48503906 -11.03515625 12.03257812 -10.5703125 11.56640625 C-9.4451972 10.44408974 -8.31430749 9.32755048 -7.1796875 8.21484375 C-6.56351563 7.60769531 -5.94734375 7.00054687 -5.3125 6.375 C-4.73113281 5.80523437 -4.14976562 5.23546875 -3.55078125 4.6484375 C-1.79748102 2.87617026 -1.79748102 2.87617026 0 0 Z " fill="#362B18" transform="translate(192,329)"/>
<path d="M0 0 C-2.57721355 5.01878429 -5.97863094 9.45315036 -12 7 C-10.50260417 5.79557292 -9.00520833 4.59114583 -7.5078125 3.38671875 C-3.00775194 -0.75193798 -3.00775194 -0.75193798 0 0 Z " fill="#38301B" transform="translate(185,142)"/>
<path d="M0 0 C0.06058594 0.62648438 0.12117187 1.25296875 0.18359375 1.8984375 C0.26738281 2.71570313 0.35117188 3.53296875 0.4375 4.375 C0.55931641 5.59316406 0.55931641 5.59316406 0.68359375 6.8359375 C0.89090114 9.04272805 0.89090114 9.04272805 2 11 C1.22265625 12.7265625 1.22265625 12.7265625 0.0625 14.625 C-0.9584375 16.295625 -0.9584375 16.295625 -2 18 C-4.96981913 15.03018087 -3.77333568 12.54667136 -2 9 C-1.77532169 7.46331135 -1.59203195 5.92031946 -1.4375 4.375 C-1.35371094 3.55773437 -1.26992187 2.74046875 -1.18359375 1.8984375 C-1 0 -1 0 0 0 Z " fill="#927F40" transform="translate(243,121)"/>
<path d="M0 0 C3.98076743 0.19577545 5.75692825 0.68748675 8.8125 3.1875 C8.8125 6.1875 8.8125 6.1875 5.8125 7.1875 C3.55078125 6.0078125 3.55078125 6.0078125 1.125 4.3125 C0.31675781 3.75820313 -0.49148437 3.20390625 -1.32421875 2.6328125 C-4.26412707 0.35238047 -3.82435555 0.22496209 0 0 Z " fill="#8E7C3A" transform="translate(88.1875,330.8125)"/>
<path d="M0 0 C3.68069887 1.53643852 5.98775204 3.78150945 8.75 6.625 C9.54921875 7.44226563 10.3484375 8.25953125 11.171875 9.1015625 C12.07679687 10.04128906 12.07679687 10.04128906 13 11 C12.34 11.66 11.68 12.32 11 13 C9.16052663 11.21427748 7.32842259 9.42197551 5.5 7.625 C4.71302734 6.86316406 4.71302734 6.86316406 3.91015625 6.0859375 C0 2.2265625 0 2.2265625 0 0 Z " fill="#C6B175" transform="translate(69,279)"/>
<path d="M0 0 C2 1 2 1 0 13 C-1.66666667 13 -3.33333333 13 -5 13 C-4 4 -4 4 -2 4 C-1.67 4.66 -1.34 5.32 -1 6 C-0.67 4.02 -0.34 2.04 0 0 Z " fill="#BDA66B" transform="translate(207,116)"/>
<path d="M0 0 C0 4 0 4 -11 5 C-8.18876648 -0.62246704 -5.92351172 -0.16454199 0 0 Z " fill="#927A40" transform="translate(150,14)"/>
<path d="M0 0 C-0.598125 0.391875 -1.19625 0.78375 -1.8125 1.1875 C-4.17177138 2.89950309 -4.17177138 2.89950309 -5.375 5.6875 C-7.65250023 8.92855801 -9.24208295 8.41754634 -13 8 C-3.69811321 -1.8490566 -3.69811321 -1.8490566 0 0 Z " fill="#958143" transform="translate(198,351)"/>
<path d="M0 0 C1.44943182 4.34829545 -0.33835957 4.02274927 -3.8125 6.5625 C-4.70582031 7.22378906 -5.59914063 7.88507813 -6.51953125 8.56640625 C-9 10 -9 10 -12 9 C-8.11327187 5.81994972 -4.10047867 2.89445553 0 0 Z " fill="#745F29" transform="translate(48,254)"/>
<path d="M0 0 C1.27310312 0.93441535 2.543388 1.87267111 3.8125 2.8125 C4.52019531 3.33457031 5.22789062 3.85664063 5.95703125 4.39453125 C7.78531393 5.83128877 9.39896688 7.31815763 11 9 C7.75108439 12.24891561 6.33098062 9.41659378 3 7 C0 2.8 0 2.8 0 0 Z " fill="#322A18" transform="translate(124,157)"/>
<path d="M0 0 C4.31083445 4.31083445 4.1111401 7.10957478 4 13 C3.01 13.33 2.02 13.66 1 14 C0.67 9.38 0.34 4.76 0 0 Z " fill="#796830" transform="translate(242,116)"/>
<path d="M0 0 C1 2 1 2 -7 14 C-8.4362925 11.12741501 -7.25905833 9.81436567 -6 7 C-5.34 7 -4.68 7 -4 7 C-4 5.35 -4 3.7 -4 2 C-2.68 1.34 -1.36 0.68 0 0 Z " fill="#958247" transform="translate(73,56)"/>
<path d="M0 0 C7.625 1.75 7.625 1.75 11 4 C9.68 4.33 8.36 4.66 7 5 C7 4.34 7 3.68 7 3 C6.34 3 5.68 3 5 3 C5 3.66 5 4.32 5 5 C2.69 4.34 0.38 3.68 -2 3 C-1.34 2.67 -0.68 2.34 0 2 C0 1.34 0 0.68 0 0 Z " fill="#99883D" transform="translate(152,358)"/>
<path d="M0 0 C3.30377906 0.18227747 5.23879203 1.10652242 8.14453125 2.65625 C9.02753906 3.1203125 9.91054687 3.584375 10.8203125 4.0625 C11.48417969 4.4234375 12.14804688 4.784375 12.83203125 5.15625 C8.8860874 7.99357153 7.02556871 6.62859372 3.08203125 4.28125 C1.60476562 3.41886719 1.60476562 3.41886719 0.09765625 2.5390625 C-2.41180547 1.00742552 -3.50965543 0.25294814 0 0 Z " fill="#6B5C2C" transform="translate(98.16796875,337.84375)"/>
<path d="M0 0 C5.29012124 4.40843437 10.18808428 9.07559794 15 14 C11.90893621 15.54553189 10.44820252 14.76194429 8.75 11.875 C6.71632066 8.53395537 4.26973374 6.20631453 1.42578125 3.55078125 C0 2 0 2 0 0 Z " fill="#AB9452" transform="translate(41,291)"/>
<path d="M0 0 C1.25 7.625 1.25 7.625 -1 11 C-1 8.69 -1 6.38 -1 4 C-1.66 4 -2.32 4 -3 4 C-3 6.31 -3 8.62 -3 11 C-3.33 11 -3.66 11 -4 11 C-4.18032787 0 -4.18032787 0 0 0 Z " fill="#69542C" transform="translate(239,197)"/>
<path d="M0 0 C0.22142255 1.95689659 0.4267568 3.91561952 0.625 5.875 C0.74101563 6.96554688 0.85703125 8.05609375 0.9765625 9.1796875 C1 12 1 12 -1 14 C-3.40214742 11.59785258 -4.3987836 0 0 0 Z " fill="#9D8A40" transform="translate(59,109)"/>
<path d="M0 0 C-2.97 2.64 -5.94 5.28 -9 8 C-10 5 -10 5 -8.125 3.1875 C-3.38461538 -1.69230769 -3.38461538 -1.69230769 0 0 Z " fill="#715F2E" transform="translate(203,349)"/>
<path d="M0 0 C0 3.16785869 -0.55555175 4.28103859 -2 7 C-2.33 7.99 -2.66 8.98 -3 10 C-3.99 10 -4.98 10 -6 10 C-6.66 11.32 -7.32 12.64 -8 14 C-9.61450786 10.77098428 -7.07533256 9.33943069 -5.0625 6.5625 C-3.96615234 5.04849609 -3.96615234 5.04849609 -2.84765625 3.50390625 C-1 1 -1 1 0 0 Z " fill="#A18D4B" transform="translate(227,315)"/>
<path d="M0 0 C-0.57142857 7.57142857 -0.57142857 7.57142857 -5 10 C-5.66 9.67 -6.32 9.34 -7 9 C-3 0 -3 0 0 0 Z " fill="#8C7B26" transform="translate(61,128)"/>
<path d="M0 0 C3.23861303 1.44424635 5.61969163 3.25772247 8.25 5.625 C8.95640625 6.25664062 9.6628125 6.88828125 10.390625 7.5390625 C10.92171875 8.02117187 11.4528125 8.50328125 12 9 C7.97372024 9 6.26696313 7.26687238 3 5 C1.6808418 4.30570621 0.35350594 3.62469505 -1 3 C-0.67 2.01 -0.34 1.02 0 0 Z " fill="#A58E46" transform="translate(57,307)"/>
<path d="M0 0 C0.33 0 0.66 0 1 0 C0.67 3.3 0.34 6.6 0 10 C-0.66 9.01 -1.32 8.02 -2 7 C-4.05925139 6.27617533 -4.05925139 6.27617533 -6 6 C-6.33 6.99 -6.66 7.98 -7 9 C-6.67 6.36 -6.34 3.72 -6 1 C-3 2 -3 2 -3 4 C-2.01 4 -1.02 4 0 4 C0 2.68 0 1.36 0 0 Z " fill="#4E4024" transform="translate(236,169)"/>
<path d="M0 0 C5.12065992 0 9.41846512 0.1846512 10 6 C2.42857143 4.28571429 2.42857143 4.28571429 0 0 Z " fill="#2F2614" transform="translate(130,166)"/>
<path d="M0 0 C0.33 1.32 0.66 2.64 1 4 C1.66 4 2.32 4 3 4 C3.33 4.99 3.66 5.98 4 7 C4.66 7.33 5.32 7.66 6 8 C5.67 10.31 5.34 12.62 5 15 C1.18073088 10.48631832 -0.34720628 5.90250682 0 0 Z " fill="#9E8A45" transform="translate(228,83)"/>
<path d="M0 0 C2 2 2 2 2.9375 4.4375 C3.99959508 6.99902343 5.03644361 8.12569617 7 10 C7 10.66 7 11.32 7 12 C2.47242429 10.22130954 -1.2080974 7.34109574 -0.75 2.1875 C-0.5025 1.465625 -0.255 0.74375 0 0 Z " fill="#674D30" transform="translate(28,274)"/>
<path d="M0 0 C0.33 0 0.66 0 1 0 C1 3.63 1 7.26 1 11 C1.66 11 2.32 11 3 11 C3 11.99 3 12.98 3 14 C2.34 14 1.68 14 1 14 C0.67 14.99 0.34 15.98 0 17 C-0.66 14.69 -1.32 12.38 -2 10 C-1.34 10 -0.68 10 0 10 C0 6.7 0 3.4 0 0 Z " fill="#7B672D" transform="translate(53,150)"/>
<path d="M0 0 C-3.19668988 2.6486859 -6.39486597 4.93992341 -10 7 C-11 4 -11 4 -9.0625 2.625 C-4.73015873 -0.78835979 -4.73015873 -0.78835979 0 0 Z " fill="#6A5427" transform="translate(190,359)"/>
<path d="M0 0 C-1.2491742 3.45925163 -2.67527795 6.14693203 -5 9 C-7.91037541 7.54481229 -6.95878689 6.87636067 -6 4 C-2.55555556 0 -2.55555556 0 0 0 Z " fill="#362D1A" transform="translate(187,165)"/>
<path d="M0 0 C0.18175781 1.24716797 0.18175781 1.24716797 0.3671875 2.51953125 C0.61855469 4.14955078 0.61855469 4.14955078 0.875 5.8125 C1.03742188 6.89144531 1.19984375 7.97039062 1.3671875 9.08203125 C1.85132338 12.17321793 1.85132338 12.17321793 4 15 C-1.04486833 14.49551317 -2.11221639 11.48122908 -1.89453125 6.66796875 C-1.16998031 0 -1.16998031 0 0 0 Z " fill="#C2AB6F" transform="translate(75,155)"/>
<path d="M0 0 C7 0 7 0 8 4 C1 4 1 4 0 0 Z " fill="#865B20" transform="translate(224,133)"/>
<path d="M0 0 C0.763125 0.309375 1.52625 0.61875 2.3125 0.9375 C4.18789677 1.67893593 6.08684652 2.36228217 8 3 C8.5625 4.8125 8.5625 4.8125 9 7 C9.64595557 8.34348935 10.31016328 9.67850557 11 11 C6.86378916 7.6189962 3.18683431 4.33409466 0 0 Z " fill="#A69246" transform="translate(210,27)"/>
<path d="M0 0 C-0.66 2.31 -1.32 4.62 -2 7 C-9.37900202 5.15524949 -6.58902507 0 0 0 Z " fill="#7B6832" transform="translate(240,264)"/>
<path d="M0 0 C0.69699552 1.45381897 1.38233866 2.91322953 2.0625 4.375 C2.63677734 5.59316406 2.63677734 5.59316406 3.22265625 6.8359375 C4 9 4 9 3 11 C1 10 1 10 1 6 C0.01 6 -0.98 6 -2 6 C-4 0 -4 0 0 0 Z " fill="#958048" transform="translate(56,164)"/>
<path d="M0 0 C4.60853797 0.72008406 8.67237409 2.31295939 13 4 C9.90521121 5.03159626 8.47368607 4.97482862 5.3125 4.5625 C4.50425781 4.46066406 3.69601563 4.35882813 2.86328125 4.25390625 C1 4 1 4 0 0 Z " fill="#A18948" transform="translate(128,350)"/>
<path d="M0 0 C0.66 1.32 1.32 2.64 2 4 C2.66 4.33 3.32 4.66 4 5 C2.25 10.75 2.25 10.75 0 13 C0 8.71 0 4.42 0 0 Z " fill="#3F3520" transform="translate(66,143)"/>
<path d="M0 0 C0.66 0.66 1.32 1.32 2 2 C4.06874034 2.6425235 4.06874034 2.6425235 6 3 C6 5.31 6 7.62 6 10 C2.46413986 6.82679218 0.41421969 4.83256305 0 0 Z " fill="#988548" transform="translate(236,111)"/>
<path d="M0 0 C0.66 2.31 1.32 4.62 2 7 C-3.01013994 7 -3.41083409 5.71332725 -4 1 C-3 0 -3 0 0 0 Z " fill="#7F6F2E" transform="translate(238,106)"/>
<path d="M0 0 C0.66 0 1.32 0 2 0 C2 0.66 2 1.32 2 2 C3.98 1.34 5.96 0.68 8 0 C8 0.66 8 1.32 8 2 C8.99 2.33 9.98 2.66 11 3 C10.01 3.66 9.02 4.32 8 5 C8 4.34 8 3.68 8 3 C7.13375 3.309375 7.13375 3.309375 6.25 3.625 C3.48032433 4.08661261 2.35438733 3.42944945 0 2 C0 1.34 0 0.68 0 0 Z " fill="#7B6F27" transform="translate(157,361)"/>
<path d="M0 0 C0 1.65 0 3.3 0 5 C0.66 5 1.32 5 2 5 C2 6.98 2 8.96 2 11 C1.67 11 1.34 11 1 11 C0.67 12.98 0.34 14.96 0 17 C-2.00643489 17 -1.41850526 12.82353343 -1.5625 11.3125 C-1.66691406 10.25675781 -1.77132812 9.20101562 -1.87890625 8.11328125 C-2.1944793 0 -2.1944793 0 0 0 Z " fill="#776437" transform="translate(67,201)"/>
<path d="M0 0 C3.45395091 1.72697545 4 4.29303159 4 8 C3.34 8 2.68 8 2 8 C1.67 9.32 1.34 10.64 1 12 C0.03929566 9.11788698 -0.10581883 7.30149956 -0.0625 4.3125 C-0.05347656 3.50425781 -0.04445312 2.69601563 -0.03515625 1.86328125 C-0.02355469 1.24839844 -0.01195312 0.63351563 0 0 Z " fill="#9E8E4A" transform="translate(234,188)"/>
<path d="M0 0 C0.99 0 1.98 0 3 0 C3 8 3 8 0 9 C0 6.03 0 3.06 0 0 Z " fill="#7F5F32" transform="translate(238,159)"/>
<path d="M0 0 C0.33 1.32 0.66 2.64 1 4 C0.34 4 -0.32 4 -1 4 C-1.33 6.64 -1.66 9.28 -2 12 C-5.01255217 12 -4.57794024 10.75050178 -5 8 C-4.00390625 5.859375 -4.00390625 5.859375 -2.5625 3.75 C-2.08941406 3.04359375 -1.61632812 2.3371875 -1.12890625 1.609375 C-0.75636719 1.07828125 -0.38382812 0.5471875 0 0 Z " fill="#6A551C" transform="translate(68,59)"/>
<path d="M0 0 C-6.33333333 9 -6.33333333 9 -11 9 C-2 -1 -2 -1 0 0 Z " fill="#7C541E" transform="translate(92,62)"/>
<path d="M0 0 C1.258125 -0.020625 2.51625 -0.04125 3.8125 -0.0625 C4.52019531 -0.07410156 5.22789062 -0.08570313 5.95703125 -0.09765625 C8 0 8 0 11 1 C11 1.99 11 2.98 11 4 C0 1 0 1 0 0 Z " fill="#7C7037" transform="translate(130,354)"/>
<path d="M0 0 C4 2 4 2 2 8 C-2 6 -2 6 0 0 Z " fill="#AE9C32" transform="translate(26,269)"/>
<path d="M0 0 C0.07654536 4.51617599 0.10228696 8.59085217 -1 13 C-5.05517502 13 -2.66323604 5.04116747 -3 1 C-1 0 -1 0 0 0 Z " fill="#423922" transform="translate(73,243)"/>
<path d="M0 0 C4.35617351 2.44391624 4.45811238 4.34888713 4.25 9.1875 C4.21390625 10.27417969 4.1778125 11.36085937 4.140625 12.48046875 C4 15 4 15 3 15 C3 11.7 3 8.4 3 5 C2.01 5 1.02 5 0 5 C0 3.35 0 1.7 0 0 Z " fill="#A9904B" transform="translate(66,184)"/>
<path d="M0 0 C0 2.64 0 5.28 0 8 C-0.33 7.01 -0.66 6.02 -1 5 C-2.32 5.33 -3.64 5.66 -5 6 C-5 0 -5 0 0 0 Z " fill="#251B0D" transform="translate(234,179)"/>
<path d="M0 0 C2.31 0 4.62 0 7 0 C6.360625 0.309375 5.72125 0.61875 5.0625 0.9375 C3.06389179 1.8345163 3.06389179 1.8345163 2 3 C-0.18639453 3.07258946 -2.37500389 3.08373783 -4.5625 3.0625 C-6.35880859 3.04896484 -6.35880859 3.04896484 -8.19140625 3.03515625 C-9.11824219 3.02355469 -10.04507813 3.01195312 -11 3 C-11 2.67 -11 2.34 -11 2 C-7.37 2 -3.74 2 0 2 C0 1.34 0 0.68 0 0 Z " fill="#80752E" transform="translate(170,13)"/>
<path d="M0 0 C5.57142857 5.14285714 5.57142857 5.14285714 6 9 C5.01 9.33 4.02 9.66 3 10 C2.01 6.7 1.02 3.4 0 0 Z " fill="#7C541E" transform="translate(210,237)"/>
<path d="M0 0 C0.33 0.99 0.66 1.98 1 3 C-1.31 3.66 -3.62 4.32 -6 5 C-3.61363636 -1.20454545 -3.61363636 -1.20454545 0 0 Z " fill="#3E361F" transform="translate(143,126)"/>
<path d="M0 0 C2.02463255 0.65213292 2.02463255 0.65213292 4 1 C1.09399739 2.25664978 -0.79604584 3 -4 3 C-4 2.34 -4 1.68 -4 1 C-4.66 0.67 -5.32 0.34 -6 0 C-1 -2 -1 -2 0 0 Z " fill="#928347" transform="translate(119,23)"/>
<path d="M0 0 C-2.97 0 -5.94 0 -9 0 C-9 -6.95363901 -2.58837878 -4.14140605 0 0 Z " fill="#7B6931" transform="translate(141,20)"/>
<path d="M0 0 C3.99455527 0.61454696 6.74466336 2.70646737 10 5 C7.13822943 6.43088528 5.06624227 5.59991697 2 5 C2 4.01 2 3.02 2 2 C1.34 1.34 0.68 0.68 0 0 Z " fill="#988347" transform="translate(81,326)"/>
<path d="M0 0 C0.556875 0.28875 1.11375 0.5775 1.6875 0.875 C4.08494645 2.0413253 6.51596939 3.0339881 9 4 C9 4.66 9 5.32 9 6 C0 5 0 5 0 0 Z " fill="#655938" transform="translate(76,176)"/>
<path d="M0 0 C0 1 0 1 -6 2 C-6 2.99 -6 3.98 -6 5 C-7.32 4.67 -8.64 4.34 -10 4 C-8 0 -8 0 0 0 Z " fill="#271D0E" transform="translate(169,131)"/>
<path d="M0 0 C1.47529378 3.75529325 0.61644893 5.0695772 -2 8 C-2.33 7.01 -2.66 6.02 -3 5 C-3.99 4.34 -4.98 3.68 -6 3 C-4.02 2.01 -2.04 1.02 0 0 Z " fill="#413721" transform="translate(203,121)"/>
<path d="M0 0 C2.1519437 3.22791555 2.20086443 4.28400809 2 8 C1.01 8 0.02 8 -1 8 C-1.125 1.125 -1.125 1.125 0 0 Z " fill="#7D652A" transform="translate(56,107)"/>
<path d="M0 0 C4.80913125 2.56487 5.01260422 5.98073813 6 11 C2.33427184 7.57865372 0 5.14341528 0 0 Z " fill="#947A45" transform="translate(218,31)"/>
<path d="M0 0 C-1.28524261 0.86380259 -2.57842419 1.71580369 -3.875 2.5625 C-4.59429687 3.03816406 -5.31359375 3.51382813 -6.0546875 4.00390625 C-8 5 -8 5 -10 4 C-8.48180388 -0.70640798 -4.51231792 -2.25615896 0 0 Z " fill="#9A8442" transform="translate(104,32)"/>
<path d="M0 0 C3.03474272 0 2.7726505 1.19602288 3 4 C0.5625 6.75 0.5625 6.75 -2 9 C-3 7 -3 7 -1.5 5.1875 C0.28276418 3.02970006 0.28276418 3.02970006 0 0 Z " fill="#725F32" transform="translate(227,314)"/>
<path d="M0 0 C4.48204212 0 3.84814574 2.00690522 5 6 C4.55859375 8.203125 4.55859375 8.203125 4 10 C3.32845067 8.71086513 2.66291141 7.41859796 2 6.125 C1.62875 5.40570313 1.2575 4.68640625 0.875 3.9453125 C0 2 0 2 0 0 Z " fill="#302715" transform="translate(118,273)"/>
<path d="M0 0 C1.85776765 3.13498292 2.20140476 5.37471432 2 9 C1.01 8.67 0.02 8.34 -1 8 C-0.34 8 0.32 8 1 8 C0.11785113 5.64644661 0.11785113 5.64644661 -3 5 C-1.125 1.125 -1.125 1.125 0 0 Z " fill="#54472B" transform="translate(87,167)"/>
<path d="M0 0 C3.96 1.98 3.96 1.98 8 4 C6.28017528 7.43964945 4.03246274 5.23773989 1 4 C0.67 2.68 0.34 1.36 0 0 Z " fill="#75612B" transform="translate(204,20)"/>
<path d="M0 0 C0 2.31 0 4.62 0 7 C-0.99 7 -1.98 7 -3 7 C-3 0 -3 0 0 0 Z " fill="#766135" transform="translate(64,236)"/>
<path d="M0 0 C0.103125 0.639375 0.20625 1.27875 0.3125 1.9375 C0.82291667 4.38541667 0.82291667 4.38541667 4 5 C4 6.65 4 8.3 4 10 C0.98864344 7.39928297 -1.97027147 3.94054294 0 0 Z " fill="#655A1E" transform="translate(56,170)"/>
<path d="M0 0 C3.65316671 1.24976756 4.78065836 1.67098753 7 5 C2 5 2 5 0 0 Z " fill="#9C8B40" transform="translate(70,318)"/>
<path d="M0 0 C6 0 6 0 7 2 C6.01 2.99 5.02 3.98 4 5 C2.68 3.35 1.36 1.7 0 0 Z " fill="#6E5834" transform="translate(51,305)"/>
<path d="M0 0 C0 2.31 0 4.62 0 7 C-3 6 -3 6 -3 1 C-1 0 -1 0 0 0 Z " fill="#7A6239" transform="translate(66,219)"/>
<path d="M0 0 C1.41687119 4.25061356 0.19320039 6.71851625 -1 11 C-1.33 11 -1.66 11 -2 11 C-1.979375 10.071875 -1.95875 9.14375 -1.9375 8.1875 C-1.84230396 4.97713989 -1.84230396 4.97713989 -3 2 C-2.01 1.34 -1.02 0.68 0 0 Z " fill="#A5904B" transform="translate(57,136)"/>
<path d="M0 0 C2.29633824 3.44450737 2.54016485 5.93812283 3 10 C0.96626946 7.6125772 -2.88103408 2.88103408 0 0 Z " fill="#8B5E21" transform="translate(186,52)"/>
<path d="M0 0 C0.33 0.99 0.66 1.98 1 3 C-0.65 3 -2.3 3 -4 3 C-4 2.34 -4 1.68 -4 1 C-5.65 1 -7.3 1 -9 1 C-5.64919071 -1.10976881 -3.77897651 -1.0497157 0 0 Z " fill="#745D35" transform="translate(189,15)"/>
<path d="M0 0 C5 4.5 5 4.5 5 9 C2.67527795 6.14693203 1.2491742 3.45925163 0 0 Z " fill="#744F1D" transform="translate(220,237)"/>
<path d="M0 0 C1.99097846 2.98646769 2.94124926 5.59687262 4 9 C-0.97017602 7.34327466 -0.10366169 4.76843767 0 0 Z " fill="#463E26" transform="translate(142,193)"/>
<path d="M0 0 C0 2.97 0 5.94 0 9 C-3.01443154 9 -2.55181778 7.76379034 -3 5 C-1.29545455 0 -1.29545455 0 0 0 Z " fill="#D6BC7B" transform="translate(227,183)"/>
<path d="M0 0 C0.66 0 1.32 0 2 0 C2 0.66 2 1.32 2 2 C3.98 1.67 5.96 1.34 8 1 C7 4 7 4 2 3 C1.67 3.66 1.34 4.32 1 5 C0.67 3.35 0.34 1.7 0 0 Z " fill="#B7A269" transform="translate(214,143)"/>
<path d="M0 0 C4.455 0.99 4.455 0.99 9 2 C4.48505047 4.25747476 4.19767412 4.09883706 0 2 C0 1.34 0 0.68 0 0 Z " fill="#726641" transform="translate(183,101)"/>
<path d="M0 0 C3.28497422 0 2.66562223 2.12435118 3 5 C1.5625 6.8125 1.5625 6.8125 0 8 C0 5.36 0 2.72 0 0 Z " fill="#958347" transform="translate(62,69)"/>
<path d="M0 0 C0 0.66 0 1.32 0 2 C-0.66 2 -1.32 2 -2 2 C-2.33 2.99 -2.66 3.98 -3 5 C-4.32 4.67 -5.64 4.34 -7 4 C-5.53303752 1.06607504 -3.25996861 0 0 0 Z " fill="#755E31" transform="translate(126,19)"/>
<path d="M0 0 C3.20383006 0.21844296 4.39031256 1.09000005 6.75 3.1875 C2.71465666 4.53261445 1.34640053 3.18550029 -2.25 1.1875 C-2.25 0.1875 -2.25 0.1875 0 0 Z " fill="#786A2F" transform="translate(98.25,337.8125)"/>
<path d="M0 0 C4 3.75 4 3.75 4 6 C-1 4 -1 4 0 0 Z " fill="#8E7D26" transform="translate(80,324)"/>
<path d="M0 0 C0.33 1.65 0.66 3.3 1 5 C-0.98 4.01 -2.96 3.02 -5 2 C-2 0 -2 0 0 0 Z " fill="#876F3C" transform="translate(226,311)"/>
<path d="M0 0 C5 0 5 0 7 4 C5.68 4 4.36 4 3 4 C3 3.01 3 2.02 3 1 C2.01 0.67 1.02 0.34 0 0 Z " fill="#6B562E" transform="translate(222,282)"/>
<path d="M0 0 C-2.91765 1.9451 -4.62537285 2.45276317 -8 3 C-5 -2 -5 -2 0 0 Z " fill="#463D25" transform="translate(155,138)"/>
<path d="M0 0 C0.33 0.66 0.66 1.32 1 2 C-3.455 1.01 -3.455 1.01 -8 0 C-4.27092181 -2.48605213 -3.7754285 -1.98706763 0 0 Z " fill="#82581F" transform="translate(142,57)"/>
<path d="M0 0 C0 2 0 2 -6 4 C-7 2 -7 2 -4.625 0.4375 C-2 -1 -2 -1 0 0 Z " fill="#77642D" transform="translate(104,29)"/>
<path d="M0 0 C2.31 0 4.62 0 7 0 C7 0.99 7 1.98 7 3 C1.125 2.25 1.125 2.25 0 0 Z " fill="#7A6935" transform="translate(85,331)"/>
<path d="M0 0 C4 2 4 2 3 5 C-1 3 -1 3 0 0 Z " fill="#8B7638" transform="translate(57,307)"/>
<path d="M0 0 C2 0 2 0 4 6 C3.01 6.495 3.01 6.495 2 7 C0.5393715 4.35261084 0 3.10551666 0 0 Z " fill="#BCA56C" transform="translate(125,291)"/>
<path d="M0 0 C3.79588866 0.54226981 5.47211993 2.20127563 8 5 C3.79313871 5 2.75991176 2.98368839 0 0 Z " fill="#C6AF73" transform="translate(129,180)"/>
<path d="M0 0 C3.16227766 0 2.31400566 5.91302547 3 9 C0 9 0 9 -2 6 C-1.34 6 -0.68 6 0 6 C0 4.02 0 2.04 0 0 Z " fill="#514429" transform="translate(218,169)"/>
<path d="M0 0 C0 5 0 5 -4 7 C-2 0 -2 0 0 0 Z " fill="#848034" transform="translate(241,167)"/>
<path d="M0 0 C-2.625 3 -2.625 3 -6 3 C-4 -1 -4 -1 0 0 Z " fill="#C0AA6E" transform="translate(76,145)"/>
<path d="M0 0 C3.08393446 1.54196723 2.5879431 3.77222095 3 7 C0 6 0 6 0 0 Z " fill="#574D30" transform="translate(208,117)"/>
<path d="M0 0 C7 1 7 1 7 3 C0 2 0 2 0 0 Z " fill="#C0AA70" transform="translate(154,70)"/>
<path d="M0 0 C0.33 0.99 0.66 1.98 1 3 C-2 4 -2 4 -5 3 C-3 0 -3 0 0 0 Z " fill="#745D29" transform="translate(75,53)"/>
<path d="M0 0 C2.97 0.33 5.94 0.66 9 1 C5.32467773 3.45021484 4.15685325 2.92374517 0 2 C0 1.34 0 0.68 0 0 Z " fill="#6E6333" transform="translate(142,357)"/>
<path d="M0 0 C-0.375 2.125 -0.375 2.125 -1 4 C-4 1.25 -4 1.25 -4 -1 C-2 -2 -2 -2 0 0 Z " fill="#756638" transform="translate(71,318)"/>
<path d="M0 0 C1.32 0.66 2.64 1.32 4 2 C2.69410686 4.61178627 1.75071322 4.46760389 -1 5 C-0.67 3.35 -0.34 1.7 0 0 Z " fill="#988543" transform="translate(234,270)"/>
<path d="M0 0 C-1 3 -1 3 -7 3 C-3.375 0 -3.375 0 0 0 Z " fill="#B5A168" transform="translate(182,139)"/>
<path d="M0 0 C-0.66 1.98 -1.32 3.96 -2 6 C-6.40129449 3.06580368 -5.01272253 0 0 0 Z " fill="#745F2F" transform="translate(61,128)"/>
<path d="M0 0 C-0.66 1.65 -1.32 3.3 -2 5 C-2.99 4.01 -3.98 3.02 -5 2 C-2 -1 -2 -1 0 0 Z " fill="#766629" transform="translate(96,34)"/>
<path d="M0 0 C0 2 0 2 -6 3 C-6 -0.42092066 -2.81891035 -1.40945517 0 0 Z " fill="#756026" transform="translate(112,25)"/>
<path d="M0 0 C0.33 0.66 0.66 1.32 1 2 C1.66 2.33 2.32 2.66 3 3 C1 5 1 5 -2 4 C-2 1 -2 1 0 0 Z " fill="#7D6C2D" transform="translate(127,349)"/>
<path d="M0 0 C-1 2 -1 2 -7 0 C-5 -2 -5 -2 0 0 Z " fill="#75652E" transform="translate(119,347)"/>
<path d="M0 0 C2 0 2 0 4 6 C1 5 1 5 0 0 Z " fill="#B2A069" transform="translate(111,261)"/>
<path d="M0 0 C3 3.625 3 3.625 3 7 C1 7 1 7 0 0 Z " fill="#BBA76D" transform="translate(108,252)"/>
<path d="M0 0 C1 3 1 3 -3 5 C-3.66 4.34 -4.32 3.68 -5 3 C-4.360625 2.87625 -3.72125 2.7525 -3.0625 2.625 C-0.80397103 2.21318657 -0.80397103 2.21318657 0 0 Z " fill="#A08A43" transform="translate(63,244)"/>
<path d="M0 0 C0 1.82140159 -2.34639351 1.69524942 -3.875 2.125 C-4.59429687 2.33382812 -5.31359375 2.54265625 -6.0546875 2.7578125 C-8 3 -8 3 -10 1 C-6.78548731 -0.60725635 -3.56387464 -0.05748185 0 0 Z " fill="#A99863" transform="translate(181,208)"/>
<path d="M0 0 C2.51468892 2.51468892 2.05290278 2.84129165 1 6 C-2 3 -2 3 0 0 Z " fill="#6B552E" transform="translate(65,182)"/>
<path d="M0 0 C1.65 1.65 3.3 3.3 5 5 C4.34 5.66 3.68 6.32 3 7 C0 2.25 0 2.25 0 0 Z " fill="#685E3C" transform="translate(124,157)"/>
<path d="M0 0 C0 5 0 5 -2 6 C-3.2 0 -3.2 0 0 0 Z " fill="#2C2111" transform="translate(70,143)"/>
<path d="M0 0 C0.66 0.66 1.32 1.32 2 2 C0.02 3.32 -1.96 4.64 -4 6 C-2.84826645 3.53199953 -1.95216435 1.95216435 0 0 Z " fill="#7A541E" transform="translate(82,79)"/>
<path d="M0 0 C5 0 5 0 6 4 C0 1 0 1 0 0 Z " fill="#B9A269" transform="translate(213,77)"/>
<path d="M0 0 C0.33 0.66 0.66 1.32 1 2 C1.66 2 2.32 2 3 2 C3 2.66 3 3.32 3 4 C0.03 3.505 0.03 3.505 -3 3 C-2.01 2.01 -1.02 1.02 0 0 Z " fill="#97834C" transform="translate(195,17)"/>
<path d="M0 0 C2.97 0.495 2.97 0.495 6 1 C2.25 3.125 2.25 3.125 0 2 C0 1.34 0 0.68 0 0 Z " fill="#9B8B4D" transform="translate(141,355)"/>
<path d="M0 0 C-1.75 3.875 -1.75 3.875 -4 5 C-3 0 -3 0 0 0 Z " fill="#C4AB70" transform="translate(180,142)"/>
<path d="M0 0 C0.33 1.32 0.66 2.64 1 4 C-0.65 4 -2.3 4 -4 4 C-2 0 -2 0 0 0 Z " fill="#C7B072" transform="translate(189,139)"/>
<path d="M0 0 C2.67253527 2.67253527 1.91247523 3.53259412 1 7 C-1.125 3.375 -1.125 3.375 0 0 Z " fill="#CAAE70" transform="translate(67,134)"/>
<path d="M0 0 C2 4 2 4 0 6 C-0.66 6 -1.32 6 -2 6 C-1.34 4.02 -0.68 2.04 0 0 Z " fill="#3E3017" transform="translate(65,71)"/>
<path d="M0 0 C4 2 4 2 4 5 C0 2.25 0 2.25 0 0 Z " fill="#795420" transform="translate(201,31)"/>
<path d="M0 0 C-3.75 1.125 -3.75 1.125 -6 0 C-4 -2 -4 -2 0 0 Z " fill="#928331" transform="translate(203,349)"/>
<path d="M0 0 C-1 2 -1 2 -6 1 C-3 -1 -3 -1 0 0 Z " fill="#564121" transform="translate(206,346)"/>
<path d="M0 0 C0.66 0.66 1.32 1.32 2 2 C-0.75 5 -0.75 5 -3 5 C-3 4.34 -3 3.68 -3 3 C-2.34 3 -1.68 3 -1 3 C-0.67 2.01 -0.34 1.02 0 0 Z " fill="#C9B71C" transform="translate(208,289)"/>
<path d="M0 0 C2 0 2 0 3 5 C1 5 1 5 0 0 Z " fill="#BEA96F" transform="translate(115,270)"/>
<path d="M0 0 C-2 2 -2 2 -6 0 C-4.25903764 -1.74096236 -2.20864831 -0.50968807 0 0 Z " fill="#725729" transform="translate(61,249)"/>
<path d="M0 0 C-1.75 3.875 -1.75 3.875 -4 5 C-2.87096774 0 -2.87096774 0 0 0 Z " fill="#C5AD71" transform="translate(161,196)"/>
<path d="M0 0 C1.32 1.65 2.64 3.3 4 5 C1 5 1 5 0 0 Z " fill="#C8B074" transform="translate(126,162)"/>
<path d="M0 0 C0 1.65 0 3.3 0 5 C-2.60830047 3.69584977 -2.56496801 2.78420474 -3 0 C-2 -1 -2 -1 0 0 Z " fill="#7F702A" transform="translate(240,137)"/>
<path d="M0 0 C2 4 2 4 0 7 C-1.125 2.25 -1.125 2.25 0 0 Z " fill="#423A23" transform="translate(228,105)"/>
<path d="M0 0 C2 1 2 1 1 6 C-1 3 -1 3 0 0 Z " fill="#816F38" transform="translate(233,56)"/>
<path d="M0 0 C1.32 0.66 2.64 1.32 4 2 C2.02 2.33 0.04 2.66 -2 3 C-1.34 2.67 -0.68 2.34 0 2 C0 1.34 0 0.68 0 0 Z " fill="#CCB64D" transform="translate(152,358)"/>
<path d="M0 0 C-1.32 0.99 -2.64 1.98 -4 3 C-4 -1.33333333 -4 -1.33333333 0 0 Z " fill="#664E30" transform="translate(218,334)"/>
<path d="M0 0 C5 1 5 1 5 3 C0 1 0 1 0 0 Z " fill="#BEA96F" transform="translate(131,329)"/>
<path d="M0 0 C0 0.99 0 1.98 0 3 C-1.32 2.67 -2.64 2.34 -4 2 C-3 0 -3 0 0 0 Z " fill="#7C723D" transform="translate(225,284)"/>
<path d="M0 0 C3 3 3 3 1 6 C0.67 4.02 0.34 2.04 0 0 Z " fill="#CAAA6E" transform="translate(133,279)"/>
<path d="M0 0 C0.33 0.66 0.66 1.32 1 2 C1.66 2.33 2.32 2.66 3 3 C3 3.66 3 4.32 3 5 C-1 3 -1 3 0 0 Z " fill="#A18E2B" transform="translate(25,272)"/>
<path d="M0 0 C-0.66 1.65 -1.32 3.3 -2 5 C-4.18922997 1.71615505 -4.36702911 0 0 0 Z " fill="#3E3520" transform="translate(62,264)"/>
<path d="M0 0 C-3.75 2 -3.75 2 -6 2 C-5 -1 -5 -1 0 0 Z " fill="#81733E" transform="translate(40,264)"/>
<path d="M0 0 C-5 2 -5 2 -6 0 C-3.50907189 -1.24546405 -2.58919267 -0.7767578 0 0 Z " fill="#6C5624" transform="translate(42,262)"/>
<path d="M0 0 C2.21338437 3.32007656 2.2020064 3.51418144 1 7 C-1.125 3.375 -1.125 3.375 0 0 Z " fill="#42351A" transform="translate(234,233)"/>
<path d="M0 0 C0.66 1.32 1.32 2.64 2 4 C0.68 4.33 -0.64 4.66 -2 5 C-1.34 3.35 -0.68 1.7 0 0 Z " fill="#5C5436" transform="translate(139,126)"/>
<path d="M0 0 C0.66 1.32 1.32 2.64 2 4 C1.01 4 0.02 4 -1 4 C-0.67 2.68 -0.34 1.36 0 0 Z " fill="#614F2D" transform="translate(238,109)"/>
<path d="M0 0 C0 1.65 0 3.3 0 5 C-3.00857459 5 -2.43429635 3.66688863 -3 1 C-2 0 -2 0 0 0 Z " fill="#7A6932" transform="translate(66,66)"/>
<path d="M0 0 C1.32 1.65 2.64 3.3 4 5 C0 4 0 4 0 0 Z " fill="#6E5F27" transform="translate(222,35)"/>
<path d="M0 0 C0.99 0.33 1.98 0.66 3 1 C2.34 2.32 1.68 3.64 1 5 C0.67 3.35 0.34 1.7 0 0 Z " fill="#81571F" transform="translate(205,35)"/>
<path d="M0 0 C1.32 1.32 2.64 2.64 4 4 C0 3 0 3 0 0 Z " fill="#6D582B" transform="translate(218,31)"/>
<path d="M0 0 C1.32 1.32 2.64 2.64 4 4 C1 4 1 4 0 0 Z " fill="#6F5B2E" transform="translate(212,25)"/>
<path d="M0 0 C0.99 0 1.98 0 3 0 C2.67 1.32 2.34 2.64 2 4 C1.34 2.68 0.68 1.36 0 0 Z " fill="#362F1C" transform="translate(118,273)"/>
<path d="M0 0 C0.66 0.33 1.32 0.66 2 1 C0 4 0 4 -2 4 C-1.34 2.68 -0.68 1.36 0 0 Z " fill="#706023" transform="translate(52,251)"/>
<path d="M0 0 C0.66 0.33 1.32 0.66 2 1 C1.34 2.32 0.68 3.64 0 5 C-1 2 -1 2 0 0 Z " fill="#A38F3D" transform="translate(63,180)"/>
<path d="M0 0 C2 3 2 3 -1 6 C-0.67 4.02 -0.34 2.04 0 0 Z " fill="#A59460" transform="translate(183,172)"/>
<path d="M0 0 C0.99 0.33 1.98 0.66 3 1 C2.67 1.99 2.34 2.98 2 4 C0 3 0 3 0 0 Z " fill="#292010" transform="translate(216,162)"/>
<path d="M0 0 C0.99 0 1.98 0 3 0 C3 0.99 3 1.98 3 3 C2.01 3 1.02 3 0 3 C0 2.01 0 1.02 0 0 Z " fill="#79613A" transform="translate(56,86)"/>
<path d="M0 0 C1.32 0.99 2.64 1.98 4 3 C2.68 3 1.36 3 0 3 C0 2.01 0 1.02 0 0 Z " fill="#6C5930" transform="translate(208,22)"/>
<path d="M0 0 C2 1 2 1 1 4 C-1 3 -1 3 0 0 Z " fill="#4D381C" transform="translate(208,340)"/>
<path d="M0 0 C1.32 0 2.64 0 4 0 C3.67 0.99 3.34 1.98 3 3 C2.01 2.01 1.02 1.02 0 0 Z " fill="#543C1E" transform="translate(53,307)"/>
<path d="M0 0 C2 1 2 1 1 4 C-1 3 -1 3 0 0 Z " fill="#382B17" transform="translate(217,177)"/>
<path d="M0 0 C0.99 0 1.98 0 3 0 C2 3 2 3 0 3 C0 2.01 0 1.02 0 0 Z " fill="#78572F" transform="translate(232,76)"/>
<path d="M0 0 C3 1 3 1 3 3 C0 2 0 2 0 0 Z " fill="#C6AE71" transform="translate(138,332)"/>
<path d="M0 0 C-0.33 0.99 -0.66 1.98 -1 3 C-2.85327615 0.22008578 -3.89488534 -1.94744267 0 0 Z " fill="#60492D" transform="translate(62,312)"/>
<path d="M0 0 C3 1 3 1 3 3 C0 2 0 2 0 0 Z " fill="#6C6827" transform="translate(32,283)"/>
<path d="M0 0 C2 2 2 2 1 4 C-1 3 -1 3 0 0 Z " fill="#776231" transform="translate(28,274)"/>
<path d="M0 0 C0.66 0.99 1.32 1.98 2 3 C1.01 3 0.02 3 -1 3 C-0.67 2.01 -0.34 1.02 0 0 Z " fill="#3E321C" transform="translate(155,204)"/>
<path d="M0 0 C0.33 0.99 0.66 1.98 1 3 C0.01 3 -0.98 3 -2 3 C-1.34 2.01 -0.68 1.02 0 0 Z " fill="#352A17" transform="translate(160,198)"/>
<path d="M0 0 C0.99 0.99 1.98 1.98 3 3 C2.01 3 1.02 3 0 3 C0 2.01 0 1.02 0 0 Z " fill="#C8B175" transform="translate(140,188)"/>
<path d="M0 0 C1.32 0.33 2.64 0.66 4 1 C3.34 1.66 2.68 2.32 2 3 C1.34 2.01 0.68 1.02 0 0 Z " fill="#BDA76D" transform="translate(142,170)"/>
<path d="M0 0 C-0.66 1.32 -1.32 2.64 -2 4 C-3.33333333 0 -3.33333333 0 0 0 Z " fill="#6D633F" transform="translate(187,165)"/>
<path d="M0 0 C3 1 3 1 3 3 C0 2 0 2 0 0 Z " fill="#C8B174" transform="translate(227,112)"/>
<path d="M0 0 C-0.33 0.99 -0.66 1.98 -1 3 C-1.99 2.34 -2.98 1.68 -4 1 C-2 0 -2 0 0 0 Z " fill="#75501D" transform="translate(106,87)"/>
<path d="M0 0 C0.33 0.99 0.66 1.98 1 3 C0.01 3 -0.98 3 -2 3 C-1.34 2.01 -0.68 1.02 0 0 Z " fill="#644A2C" transform="translate(81,44)"/>
<path d="M0 0 C-0.66 0.66 -1.32 1.32 -2 2 C-2.66 1.34 -3.32 0.68 -4 0 C-3 -1 -3 -1 0 0 Z " fill="#67542C" transform="translate(89,42)"/>
<path d="M0 0 C0.33 0 0.66 0 1 0 C1 1.98 1 3.96 1 6 C0.67 6 0.34 6 0 6 C0 4.02 0 2.04 0 0 Z " fill="#867728" transform="translate(264,338)"/>
<path d="M0 0 C2 1 2 1 2 3 C1.01 2.67 0.02 2.34 -1 2 C-0.67 1.34 -0.34 0.68 0 0 Z " fill="#535023" transform="translate(38,289)"/>
<path d="M0 0 C0.99 0.33 1.98 0.66 3 1 C2.34 1.66 1.68 2.32 1 3 C0.67 2.01 0.34 1.02 0 0 Z " fill="#88774D" transform="translate(76,176)"/>
<path d="M0 0 C0.99 0.33 1.98 0.66 3 1 C2.34 1.66 1.68 2.32 1 3 C0.67 2.01 0.34 1.02 0 0 Z " fill="#C5AE72" transform="translate(79,131)"/>
<path d="M0 0 C0.66 0.66 1.32 1.32 2 2 C1.01 2.33 0.02 2.66 -1 3 C-0.67 2.01 -0.34 1.02 0 0 Z " fill="#BCA56B" transform="translate(136,130)"/>
<path d="M0 0 C-0.33 0.99 -0.66 1.98 -1 3 C-1.66 2.34 -2.32 1.68 -3 1 C-2 0 -2 0 0 0 Z " fill="#C3AC71" transform="translate(143,122)"/>
<path d="M0 0 C0.66 0.66 1.32 1.32 2 2 C1.01 2.33 0.02 2.66 -1 3 C-0.67 2.01 -0.34 1.02 0 0 Z " fill="#4B3315" transform="translate(69,111)"/>
<path d="M0 0 C0.66 0.66 1.32 1.32 2 2 C1.01 2.33 0.02 2.66 -1 3 C-0.67 2.01 -0.34 1.02 0 0 Z " fill="#6D4B1D" transform="translate(88,110)"/>
<path d="M0 0 C0.66 0.66 1.32 1.32 2 2 C1.01 2.33 0.02 2.66 -1 3 C-0.67 2.01 -0.34 1.02 0 0 Z " fill="#453014" transform="translate(205,66)"/>
<path d="M0 0 C0.99 0.33 1.98 0.66 3 1 C2.34 1.66 1.68 2.32 1 3 C0.67 2.01 0.34 1.02 0 0 Z " fill="#5E4018" transform="translate(201,31)"/>
<path d="M0 0 C0.66 0.66 1.32 1.32 2 2 C1.01 2 0.02 2 -1 2 C-0.67 1.34 -0.34 0.68 0 0 Z " fill="#362C18" transform="translate(199,128)"/>
<path d="M0 0 C0.66 0.66 1.32 1.32 2 2 C1.01 2 0.02 2 -1 2 C-0.67 1.34 -0.34 0.68 0 0 Z " fill="#352B17" transform="translate(122,105)"/>
<path d="M0 0 C2 1 2 1 2 1 Z " fill="#7F7F22" transform="translate(22,271)"/>
<path d="" fill="#808040" transform="translate(0,0)"/>
<path d="" fill="#808040" transform="translate(0,0)"/>
<path d="" fill="#878700" transform="translate(0,0)"/>
<path d="" fill="#484824" transform="translate(0,0)"/>
<path d="" fill="#878700" transform="translate(0,0)"/>
</svg>
